<svg xmlns="http://www.w3.org/2000/svg" viewBox="0 0 435.26 91.04"><title>GoDaddy logo - Brandlogos.net</title><path d="M382.57,470.64c-10.63-6.64-24.61-5.06-37.09,2.78-12.44-7.84-26.43-9.42-37-2.78-16.79,10.49-18.83,37.51-4.55,60.35,10.52,16.84,27,26.71,41.62,26.53,14.65.18,31.1-9.69,41.62-26.53C401.38,508.15,399.35,481.13,382.57,470.64Zm-71,55.53A54.71,54.71,0,0,1,305,511.09a43.12,43.12,0,0,1-1.43-14.22c.64-8.44,4.07-15,9.67-18.51s13-3.71,20.88-.58c1.18.47,2.35,1,3.51,1.62A64.5,64.5,0,0,0,326.33,493c-8.67,13.87-11.31,29.3-8.29,41.6a56,56,0,0,1-6.45-8.44ZM386,511.08a54.84,54.84,0,0,1-6.59,15.08,56.5,56.5,0,0,1-6.45,8.45c2.7-11,.87-24.54-5.76-37.21a1.67,1.67,0,0,0-2.4-.65l-20.67,12.91a1.69,1.69,0,0,0-.54,2.33l3,4.85a1.69,1.69,0,0,0,2.33.54l13.4-8.37c.43,1.3.87,2.6,1.19,3.9a43.11,43.11,0,0,1,1.43,14.2c-.64,8.44-4.07,15-9.67,18.51a18.9,18.9,0,0,1-9.58,2.77h-.43a18.88,18.88,0,0,1-9.58-2.77c-5.6-3.5-9-10.08-9.68-18.51a43.23,43.23,0,0,1,1.43-14.22,56.27,56.27,0,0,1,17.26-27.62,43.21,43.21,0,0,1,12.13-7.51c7.86-3.13,15.28-2.92,20.88.58s9,10.07,9.67,18.51A43.23,43.23,0,0,1,386,511.08ZM492.69,501A19.37,19.37,0,0,0,473,520.28c0,10.72,8.78,19.07,19.65,19.07s19.73-8.33,19.73-19.07A19.37,19.37,0,0,0,492.69,501Zm0,28.27a9.09,9.09,0,1,1,8.9-9,8.85,8.85,0,0,1-8.9,9Zm44.23-43.08h-20a1.6,1.6,0,0,0-1.63,1.64v48.76a1.62,1.62,0,0,0,1.63,1.73h20c16,0,27.12-10.64,27.12-26.13S552.93,486.19,536.92,486.19ZM537.4,528H526.45V496.46H537.4c8.86,0,15,6.63,15,15.71C552.36,521.1,546.25,528,537.4,528Zm66.46-26h-7.52a1.69,1.69,0,0,0-1.56,1.64v2.23c-1.71-2.83-5.58-4.91-10.4-4.91-9.38,0-18.16,7.37-18.16,19.13s8.71,19.2,18.09,19.2c4.84,0,8.78-2.08,10.5-4.91v2.31a1.57,1.57,0,0,0,1.56,1.56h7.52a1.53,1.53,0,0,0,1.56-1.56v-33a1.59,1.59,0,0,0-1.59-1.64Zm-17.49,27.3c-5,0-8.72-3.83-8.72-9.13s3.74-9.13,8.72-9.13,8.72,3.82,8.72,9.13-3.74,9.13-8.72,9.13Zm59.69-43.16h-7.52a1.59,1.59,0,0,0-1.63,1.56v18c-1.73-2.68-5.66-4.77-10.57-4.77-9.31,0-17.94,7.37-17.94,19.13s8.71,19.2,18.09,19.2c4.84,0,8.48-2.08,10.5-4.91v2.31a1.57,1.57,0,0,0,1.56,1.56h7.52a1.53,1.53,0,0,0,1.56-1.56v-49a1.53,1.53,0,0,0-1.56-1.57Zm-17.49,43.25c-5,0-8.67-3.87-8.67-9.23s3.72-9.23,8.67-9.23,8.67,3.87,8.67,9.23S633.53,529.44,628.57,529.44Zm59.68-43.25h-7.51a1.59,1.59,0,0,0-1.64,1.56v18c-1.71-2.68-5.66-4.77-10.57-4.77-9.31,0-17.94,7.37-17.94,19.13s8.71,19.2,18.09,19.2c4.84,0,8.48-2.08,10.5-4.91v2.31a1.57,1.57,0,0,0,1.56,1.56h7.51a1.52,1.52,0,0,0,1.56-1.56v-49a1.52,1.52,0,0,0-1.56-1.57Zm-17.49,43.25c-5,0-8.67-3.87-8.67-9.23s3.72-9.23,8.67-9.23,8.67,3.87,8.67,9.23-3.7,9.23-8.65,9.23Zm58.66-24.86L718.2,543.06c-2.17,6.85-7,10.94-14.52,10.94a18.13,18.13,0,0,1-9-2.09c-1.42-.81-2.6-1.55-2.6-2.74a3,3,0,0,1,.67-1.81L695,544c.63-.93,1.09-1.24,1.77-1.24a2.57,2.57,0,0,1,1.48.52,8.05,8.05,0,0,0,4.68,1.69c2.31,0,4.08-.74,5-3.5l1-3.19H704.4a2,2,0,0,1-2-1.56l-10-32.15c-.37-1.27,0-2.53,1.83-2.53h7.91c1,0,1.64.33,2.07,1.71l7.41,25.89,6.93-25.89a2,2,0,0,1,2-1.71H728C729.49,502,729.94,503.09,729.42,504.58ZM470.21,516v20.55a1.67,1.67,0,0,1-1.7,1.7H462.3a1.67,1.67,0,0,1-1.7-1.7v-5.4c-3.94,5-10.79,8.11-18.54,8.11-14.55,0-25.92-10.95-25.92-26.53,0-16.19,12.28-27.36,27.79-27.36,11.45,0,20.6,4.92,24.67,14.82a2.26,2.26,0,0,1,.19.83c0,.47-.31.82-1.3,1.17L460.23,505a1.86,1.86,0,0,1-1.37,0,2.1,2.1,0,0,1-.87-1c-2.6-4.94-7.23-8.3-14.35-8.3-9.24,0-15.86,7.22-15.86,16.57,0,9.07,5.63,16.53,16.12,16.53,5.52,0,9.91-2.6,12-5.46h-6.54a1.67,1.67,0,0,1-1.7-1.7V516.1a1.67,1.67,0,0,1,1.7-1.7h19.18a1.62,1.62,0,0,1,1.7,1.63Z" transform="translate(-294.37 -466.48)" style="fill:#111"/></svg>