<?xml version="1.0" encoding="UTF-8"?>
<svg id="Layer_2" data-name="Layer 2" xmlns="http://www.w3.org/2000/svg" viewBox="0 0 565.47 282.05">
  <defs>
    <style>
      .cls-1 {
        fill: #262626;
      }

      .cls-1, .cls-2, .cls-3, .cls-4, .cls-5, .cls-6, .cls-7, .cls-8, .cls-9, .cls-10, .cls-11 {
        stroke-width: 0px;
      }

      .cls-2 {
        fill: #bababa;
      }

      .cls-3 {
        fill: #e0e0e0;
      }

      .cls-4 {
        fill: gray;
      }

      .cls-5 {
        fill: #8d8d8d;
      }

      .cls-6 {
        fill: #969696;
      }

      .cls-7 {
        fill: #272727;
      }

      .cls-8 {
        fill: #2a2a2a;
      }

      .cls-9 {
        fill: #a9a9a9;
      }

      .cls-10 {
        fill: #282828;
      }

      .cls-11 {
        fill: #efefef;
      }
    </style>
  </defs>
  <g id="Layer_1-2" data-name="Layer 1">
    <g>
      <path class="cls-1" d="M343,148.91c1.02-3.24,1.37-6.66,2.94-9.78,1.26-2.5,1.15-5.45,1.91-8.17.94-3.36.95-7,1.11-10.54.17-3.66.62-7.44-.09-10.96-1.22-6.04-2.31-12.13-5.41-17.73-3.91-7.06-7.84-14.09-11.98-21.02-2.19-3.65-4.24-7.5-5.55-11.68-1.01-3.21-2.49-6.3-3.96-9.34-3.63-7.51-6.19-15.43-8.98-23.26-.21-.58-.55-1.13-.66-1.72-.1-.54.03-1.13.06-1.7.35.28.85.49,1.04.86,2.1,4.05,5.14,7.55,7.3,11.48,4.24,7.72,9.87,14.46,14.4,21.97,3.2,5.3,7.78,9.74,11.47,14.77,2.68,3.65,5.94,6.92,7.57,11.34.43,1.15,1.04,1.66.05,2.85-1.28,1.54-2.21,3.39-3.22,5.14-.48.84-2.26,1.04-1.4,2.38.14.22,1.98-.48,2.92-.97,1.79-.93,3.67-3.15,5.43-2.15,1.41.8,1.99,3.38,2.54,5.28.96,3.28,2.23,6.46,2.58,9.95.38,3.77-1.28,6.48-3.62,9.03-.9.98-1.9,1.87-2.8,2.85-.21.23-.16.69-.23,1.04.45-.07,1,0,1.34-.23,1.43-1,2.8-2.1,4.2-3.15.21-.16.47-.26.7-.39.11.29.29.56.33.86.66,4.95-1.63,9.23-3.21,13.65-.41,1.15-1.21,2.16-1.76,3.27-.1.19.18.57.28.86.24-.11.58-.15.69-.33,1.22-1.95,2.24-.99,3.19.22.98,1.25,1.88,2.55,2.85,3.81.13.17.46.18.69.27.09-.29.35-.77.25-.86-2.03-1.84.06-4.87-1.92-6.75-.11-.11.41-1.23.87-1.54,2.72-1.83,5.38-3.83,8.3-5.28,10.33-5.15,20.19-11.05,29.65-17.68,2.93-2.05,6.08-3.79,9.13-5.68.17,0,.35-.05.49.01.14.06.36.3.34.33-.94,1.4-1.72,2.96-2.89,4.15-7.08,7.25-14.32,14.31-22.37,20.54-4.89,3.79-10.12,7.11-14.87,11.03-3.24,2.67-6.26,5.66-8.8,9.16-2.69,3.7-4.53,7.8-6.32,11.87-1.35,3.06-3.05,6.26-2.59,9.89-.33.26-.93.5-.95.79-.1,1.32.38,2.85-.12,3.95-1.58,3.47-.64,7.06-.89,10.58-.04.52.35,1.08.54,1.61.14-.6.42-1.21.41-1.81-.06-4.49,1.19-8.77,2.02-13.12-.54-1.71.67-3.06,1.06-4.55,1.85-7,5.43-13.26,9.94-18.76,4.14-5.04,8.85-9.77,14.33-13.41,5.29-3.52,10.45-7.26,15.12-11.46,7.43-6.67,14.51-13.79,20.54-21.82v-1c.33-.33.67-.67,1-1,2.92-2.06,3.99-5.46,5.99-8.19,1.02-1.39,1.96-2.84,2.97-4.25.14-.2.46-.28.69-.41.12.28.38.6.32.85-.28,1.37-.62,2.73-.98,4.07-1.17,4.33-2.29,8.68-3.57,12.98-1.85,6.22-4.79,11.99-7.75,17.71-2.46,4.76-5.42,9.19-8.97,13.3-1.37,1.58-2.44,2.13-4.18,1.9-.72-.09-1.93-.95-1.98-.87-.77,1.23.79,1.31,1.13,2.06.52,1.12.64,2.1-.37,3.07-2.03,1.96-4.04,3.95-5.99,5.99-.95,1-1.95.98-3.06.52-.43-.18-.77-.56-1.2-.72-1.86-.68-3.74-1.3-5.62-1.95.56,2.33,2.4,3.3,4.34,4.27.72.36,1.63.96.35,2.1-4.52,4.03-8.93,8.17-13.35,12.32-.69.65-1.19,1.49-1.78,2.25-.67.67-1.33,1.33-2,2-1.33,1.33-2.67,2.67-4,4-5.55,3.56-8.46,9.26-11.17,14.85-1.94,4.01-3.02,8.52-2.83,13.15-.33,1.35-.81,2.69-.96,4.06-.17,1.47-.04,2.98-.04,4.47v4.47c0,2.26-.05,4.52.05,6.77.02.42.62.82.95,1.23v3c-.15.76.5,1.91-1,2v-1c-.38-.98.93-2.53-1-3-.36-2.19.47-4.39-.87-6.65-.97-1.64.72-4.23-1.13-6,.32-2.93-.35-5.74-.98-8.58-.93-4.17-.49-8.57-2.01-12.65-.11-.29-.02-.66-.01-.99.05-8.7-1.7-17.33-1.01-26.05.09-1.16.02-2.33,0-3.49,0-.13-.21-.37-.28-.35-.24.05-.62.13-.68.29-1.41,3.84-3.95,7.03-6.03,10.48-2.9,4.8-5.86,9.56-8.82,14.33-3.04,4.9-6.11,9.79-9.17,14.68-.33-.33-.67-.67-1-1,4.45-7.98,8.1-16.33,10.51-25.13,1.07-3.91,2.55-7.78,2.55-11.98,0-1.69,1.08-3.45.86-5.07-.62-4.54-.94-9.16-2.22-13.56-1.93-6.66-4.56-13.07-7.24-19.49-3.14-7.53-6.68-14.89-9.69-22.48-.7-1.76-.56-2.85,1.01-3.26,3.02-.79,6.11-1.36,9.16-2.05.33-.08.61-.42.91-.64-.29-.11-.57-.32-.86-.32-3.5-.02-7-.06-10.5,0-1.8.03-2.86-.41-3.56-2.38-1.34-3.76-3.2-7.33-4.77-11.02-.62-1.45.63-2.18,1.58-2.56,1.44-.57,3.04-.71,4.56-1.08.25-.06.45-.35.67-.54-.27-.15-.54-.41-.82-.43-.83-.06-1.66-.02-2.5-.02-5.11-.04-5.35.02-6.55-4.85-.9-3.65-2.04-7.29-2.15-11.15-.06-2.19-1.19-4.26-.98-6.59.2-2.22.45-4.55-.95-6.58.55-4.18-1.09-8.49.93-12.62.46-.94.22-2.32.04-3.46-.71-4.62.77-9.07,1.25-13.56.35-3.35.83-6.86,1.78-10.19.67.33,1.33.67,2,1-.1,3.21,1.23,6.17,1.67,9.27.52,3.59,1.51,7.04,2.31,10.54,1.55,6.8,3.75,13.38,6.22,19.89,1.58,4.17,3.1,8.41,4.94,12.42,2.18,4.74,4.47,9.49,7.28,13.98,3.59,5.74,6.47,11.93,9.55,17.99,1.67,3.29,3.7,6.56,4.5,10.08.83,3.65,2.08,7.19,2.75,10.92.98,5.42.49,10.74.76,16.1.2,3.86-1.14,7.5-1.69,11.22-.57,3.92-2.19,7.6-2.3,11.58-1.57,1.63-2.07,3.64-1.98,5.82.02.38.35.74.54,1.12.14-.27.31-.53.43-.81.68-1.7,1.34-3.41,2-5.12ZM351.1,147.64c-.47.43-1.09.78-1.05.99.3,1.35.55,2.77,1.21,3.95.5.89,1.58,1.46,2.4,2.18,1.19-1.52-.71-1.84-1.04-2.77-.36-1.02-.38-2.16-.65-3.22-.09-.37-.49-.66-.88-1.13Z"/>
      <path class="cls-1" d="M0,159.67c0-10.99,0-21.98,0-32.97,0-2.77.03-2.79,2.99-2.79,14.32,0,28.64-.05,42.96.02,4.83.02,9.09,2.11,13.06,4.59,2.79,1.74,2.89,5.51,4.98,7.88.01,6.43.93,13.13-4.94,17.92-1.68,1.37-.28,1.14.58,1.85,3.88,3.18,7.15,6.92,8.87,11.76.26.73.44,1.53.47,2.3.06,2.16.04,4.33.02,6.49-.06,7.76-4.15,13.08-10.4,17.08-3.03.06-5.5,2.16-8.62,2.14-15.82-.09-31.64-.04-47.45-.05-2.48,0-2.51-.03-2.51-2.77-.01-11.16,0-22.31,0-33.47ZM29.71,187.91c5.98,0,11.97-.11,17.95.05,3.09.08,5.54-1.29,7.72-3.03,3.63-2.89,4.91-7.03,4.55-11.51-.25-3.11-1.09-6.14-3.43-8.54-2.45-2.52-5.56-3.83-8.84-3.89-12.3-.2-24.6-.04-36.9-.12-1.72-.01-1.79.74-1.78,2.07.05,7.65.13,15.3-.05,22.94-.05,2.08.79,2.07,2.32,2.06,6.15-.06,12.3-.03,18.45-.03ZM27.26,131.91c-5.49,0-10.99.01-16.48-.01-1.1,0-1.84,0-1.81,1.53.09,5.99.05,11.99.02,17.98,0,.98.15,1.52,1.31,1.52,10.99-.03,21.99.26,32.96-.18,3.38-.14,7.31-.54,9.74-4.2,2.14-3.22,2.9-6.36,1.23-9.85-.62-1.3-.56-3.02-2.22-3.8-3.27-1.54-6.44-3.17-10.26-3.03-4.82.18-9.66.04-14.49.04Z"/>
      <path class="cls-7" d="M246,159.89c0-11.32.02-22.63-.02-33.95,0-1.34.08-2.07,1.79-2.06,14.31.07,28.63-.22,42.93.15,6.97.18,12.88,3.49,17.05,9.25.96,1.33,1.06,3.2,1.36,4.94,1.52,8.49,1.55,10.48-2.12,17.33-2.28,4.26-6.98,7.64-11.49,8.38-.46.08-1.08.09-1.31.38-.36.46-1.47.52-.63,1.77,2.07,3.09,3.79,6.41,5.71,9.6,3.85,6.38,7.16,13.07,11.26,19.31.15.22.03.77-.16,1.02-.24.32-.9.78-1,.7-2.25-1.75-4.81-.4-7.18-.77-1.08-.17-2.48.33-2.26-1.59-5.2-8.11-9.14-16.98-14.79-24.83-.99-1.37-1.32-3.59-2.58-4.29-1.41-.78-3.53-.3-5.34-.3-6.32-.02-12.65-.01-18.97,0-3.21,0-3.23.02-3.24,3.04,0,8.65-.03,17.31.02,25.96,0,1.39-.15,2.16-1.83,2.02-2.29-.19-4.6-.16-6.9-.23-.1-2.29-.28-4.58-.28-6.87-.03-9.65-.01-19.3-.01-28.96ZM273.77,155.91c5.16,0,10.31-.08,15.47.04,2.17.05,4-.54,5.85-1.58,3.86-2.16,7.21-8.13,5.79-11.91-1.14-3.05-2.04-6.3-5.71-8.17-2.99-1.51-6.03-2.15-9.01-2.26-9.63-.34-19.29-.09-28.93-.16-1.61-.01-2.33.11-2.28,2.1.17,6.65.1,13.3.03,19.95-.01,1.4.19,2.05,1.83,2.02,5.65-.1,11.31-.04,16.96-.04Z"/>
      <path class="cls-7" d="M179.05,124.11c3.22-.96,4.65.66,5.81,3.12,3.69,7.81,7.48,15.57,11.28,23.32,6.93,14.12,13.9,28.23,20.85,42.34.34.69.82,1.36.95,2.09.11.57-.13,1.26-.41,1.8-.07.14-.96.08-1.28-.15-2.12-1.52-4.48-.4-6.71-.69-.89-.12-1.18-.29-1.64-1.23-2.48-5.15-5.4-10.09-7.75-15.29-.82-1.8-1.56-2.54-3.45-2.54-11.83.04-23.66.03-35.49,0-1.63,0-2.51.45-3.3,2.13-4.36,9.36-9.22,18.5-13.37,27.96-2.92,6.66-6.33,13.04-9.46,19.58-.88,1.83-1.78,2.46-3.58,2.35-2.12-.13-4.24-.23-6.36-.34.16-2.23,1.69-3.88,2.48-5.83,4.48-11.01,10.33-21.37,15.38-32.11,5.25-11.16,10.67-22.24,16.1-33.32,4.89-9.98,10.04-19.82,14.72-29.9,1.26-2.71,2.21-4.52,5.21-3.3ZM179.34,167.91c4.16,0,8.31,0,12.47,0,2.51,0,2.43.01,1.4-2.34-.56-1.26-.62-2.75-1.23-3.97-3.89-7.71-7.87-15.36-11.82-23.04-.26-.51-.47-1.05-.71-1.58-.47.47-1.1.86-1.39,1.42-4.61,9.23-9.18,18.47-13.75,27.72-.64,1.3-.37,1.77,1.07,1.78,4.66.03,9.31.01,13.97.01Z"/>
      <path class="cls-3" d="M373,165.91c.67-.67,1.33-1.33,2-2,2.09,2.52,5.39,2.66,8.09,3.89,5.46,2.47,11.33,4.01,16.54,7.1.39.23,1.04.17,1.28.47.68.85,1.56,1.77,1.69,2.75.12.85-.46,2.04-1.11,2.7-1.1,1.11-2.51,1.92-3.77,2.88-.26.2-.47.47-.71.7.26.17.55.51.79.47,2.86-.42,5.9,1.04,8.64-.85.34-.24.96-.04,1.44-.13,2.18-.44,4.36.55,6.69-.79,1.74-1.01,4.47.35,6.47-1.2,3.63.74,7.02-1.05,10.57-.98.44,0,.88.26,1.32.4-.42.47-.76,1.22-1.27,1.36-1.8.52-3.67,1.16-5.5,1.14-3.26-.05-6.23.95-9.32,1.67-3.04.71-6.14,1.04-9.12,2.11-2.05.73-4.29.99-6.46,1.27-3.28.42-6.32,1.47-9.44,2.52-2.95.99-5.72,2.31-8.59,3.4-4.02,1.53-7.53,3.8-10.84,6.35-2.62,2.01-4.83,4.58-7.09,7.02-.94,1.01-1.56,2.33-2.27,3.54-.11.2.07.62.21.88.03.07.52.02.66-.12,2.14-2.1,4.31-4.17,6.36-6.36,4.74-5.07,10.78-8.29,17.02-10.76,4.26-1.69,8.93-2.45,13.17-4.4,4.15.86,7.7-1.59,11.62-2.16,6.78-.99,13.66-1.82,20.07-4.54,1.91-.81,4.26.41,5.94-1.35,4.74-.25,9.01-2.49,13.62-3.39,1.94-.38,4.68-.08,5.91-2.6.06-.13.64-.07.96,0,.45.09,1.07.13,1.28.42.2.27.13,1.06-.13,1.28-1.69,1.47-3.28,3.28-5.26,4.15-1.92.84-3.45,2.14-5.23,3.06-1.48.77-3.78.39-4.83,1.42-1.53,1.5-3.03,1.69-4.88,1.69-.57,0-1.13.47-1.71.65-1.63.51-3.04,1.67-4.96,1.37-.66-.1-1.46.43-2.15.76-1.91.91-3.85,1.47-6.01,1.2-1.32-.17-2.64-.15-3.49,1.24-.22.35-.77.71-1.17.71-2.58,0-4.92.25-7.35,1.64-2.21,1.26-5.11,1.25-7.68,1.92-2.39.62-4.71,1.72-7.13,2.02-3.46.43-6.66,1.68-9.99,2.47-1.95.46-3.97.75-5.61,2.16-.55.47-1.4.61-2.14.82-5.01,1.4-9.27,4.27-13.57,7.01-2.67,1.7-5.44,3.43-7.57,5.71-1.61,1.72-3.08,3.99-2.98,6.7.03.89,0,1.75-1.21,1.56-1.28-.19-.66-1.27-.78-1.98-.05-.32,0-.67,0-1,1.5-.09.85-1.24,1-2,.17,0,.47.02.48,0,.46-2.59,1.44-5,2.5-7.4,1.23-2.79,1.7-6.16,3.57-8.37,2.19-2.6,1.91-6.52,5.07-8.41.28-.17.47-.95.32-1.27-.14-.3-.77-.45-1.2-.53-1.98-.38-3.72.42-5.44,1.2-3.45,1.56-3.44,1.57-5.29.79-.19-4.63.9-9.14,2.83-13.15,2.71-5.6,5.61-11.29,11.17-14.85,1.28,1.11,2.4,2.52,3.86,3.25,1.82.9,2.5,2.65,3.75,3.93,2.1,2.15,1.94,4.61-.09,6.8-2.42,2.61-5.36,4.45-8.5,6.02-2.9,1.45-5.93,2.6-8.72,4.26-.25.15-.18.86-.2,1.31,0,.04.51.22.66.13,4.52-2.69,9.99-3.33,14.26-6.65,1.29-1.01,3.08-1.36,4.62-2.06.7-.32,1.45-.66,2-1.17,1.47-1.35,2.87-2.78,4.25-4.23,1.54-1.62,1.64-4.58.05-6.07-1.02-.96-1.62-2.38-3.42-2.62-1.11-.15-2.22-1.18-3.1-2.05-.87-.87-1.36-2.12-2.18-3.06-.83-.96-1.6-2.22-3.24-1.79Z"/>
      <path class="cls-7" d="M93.46,207.91c3.6-.98,5.53,1.03,6.89,4.75,2.82,7.69,7.08,14.73,10.64,22.09,4.62,9.59,8.67,19.46,14.01,28.7.23.39.18.94.41,1.33.65,1.11,1.54,1.19,2.09.12,1.7-3.29,3.54-6.53,4.92-9.96,2.13-5.32,5.04-10.25,7.41-15.43,5.84-12.76,12.16-25.29,18.19-37.96,1.33-2.78,2.81-5.51,3.94-8.36.63-1.58,1.39-2.55,3.13-2.26,2.63.43,5.46-1.01,7.92.86-1.03,2.24-2.01,4.5-3.1,6.71-6.62,13.43-13.58,26.7-19.8,40.3-4.76,10.4-10.08,20.49-14.94,30.81-1.22,2.59-3.02,5.04-3.51,8.06-.23,1.45-1.01,3.44-2.12,3.97-1.5.71-3.56.31-5.37.22-.4-.02-.9-.64-1.14-1.1-3.13-6.2-6.45-12.32-9.26-18.66-4.13-9.33-9.25-18.16-13.38-27.46-3.77-8.47-7.96-16.71-12.12-24.97-.61-1.21-.27-1.7,1.17-1.75,1.17-.04,2.33,0,4.02,0Z"/>
      <path class="cls-7" d="M397,249.9c0-8.99.02-17.97-.02-26.96,0-1.34.07-2.08,1.78-2.07,11.65.08,23.3-.02,34.95.07,4.76.04,11.75,5.19,13.27,9.64,1.48,4.34,1.82,8.93-.31,13-2.23,4.27-5.41,7.96-10.44,9.34-.99.27-1.76,1.79-1.16,2.52,3.9,4.74,5.86,10.65,9.45,15.58,1.44,1.97,2.38,4.32,3.42,6.56.12.25-.5.94-.9,1.31-.18.17-.65-.03-.97.04-3.99.84-6.3-1.08-8.09-4.46-3.54-6.7-7.29-13.3-11.01-19.9-.54-.97-1.29-1.71-2.72-1.69-6.32.1-12.65.06-18.97.03-1.16,0-1.3.55-1.3,1.53.03,7.49,0,14.98.04,22.47,0,1.34-.09,2.05-1.79,2.07-5.24.06-5.24.15-5.24-5.09v-23.97ZM419.54,227.91c-4.65,0-9.29.05-13.94-.03-1.37-.02-1.63.49-1.62,1.71.05,5.14.08,10.29-.01,15.43-.03,1.52.43,1.93,1.93,1.92,7.47-.07,14.94.06,22.4-.09,2.16-.04,4.44-.46,6.41-1.29,1.78-.75,3.36-1.85,4.46-3.94,1.13-2.16.74-4.13.78-6.15.07-4.19-3.29-7.5-7.46-7.55-4.31-.06-8.63-.01-12.94-.01Z"/>
      <path class="cls-10" d="M534.53,219.92c7.49-.5,14.42,1.37,20.92,4.97,1.91,1.06,3.68,2.36,5.55,3.51,1.3.8.68,1.35-.07,2.15-1.27,1.34-2.38,2.82-3.56,4.24-1.39-1.06-2.69-2.29-4.2-3.15-4.21-2.38-8.59-4.36-13.52-4.74-.93-.07-1.82-.47-2.75-.56-1.23-.12-2.47-.17-3.7-.08-.92.07-1.86.75-2.7.6-2.8-.49-4.91,1.2-7.07,2.28-2.93,1.47-4.31,5.82-3.4,8.99.12.43.48.88.85,1.13,2.31,1.57,4.69,3.07,7.48,3.63,2.17.44,4.37.82,6.58.98,2.32.17,4.66.09,6.99.03,4.03-.12,7.89.84,11.65,2.06,5.75,1.85,9.35,6.4,11.27,11.64,2.34,6.39-2.14,15.28-8.35,18.29-3.18,1.54-6.43,3.07-9.88,3.84-1.9.42-3.96.02-5.93.21-5.72.57-11.23-.81-16.62-2.16-4.93-1.23-9.15-4.42-13.56-6.98-.45-.26-.7-1.65-.42-2.21.69-1.4,1.72-2.63,2.66-3.9.71-.95,1.39-1,2.43-.18,3.93,3.1,8.43,5.25,13.06,7.04,2.02.78,4.26,1.11,6.43,1.31,2.31.22,4.66-.05,6.99.07,6.11.31,10.83-2.31,14.65-6.84.38-.45.63-1.11.68-1.7.11-1.16-.1-2.35.06-3.49.5-3.69-1.44-5.61-4.54-7.07-3.42-1.61-7.38-3.15-10.28-2.87-4.94.47-9.77-.56-14.56-1.2-5.54-.75-10.93-2.94-14.07-7.95-1.82-2.91-2.09-6.39-1.08-10.08.92-3.34,3.46-4.98,5.45-7.25,1.72-1.96,4.22-2.57,6.49-3.6,3.28-1.49,6.71-.8,10.08-.97Z"/>
      <path class="cls-10" d="M167,248.91c0-8.66.02-17.32-.02-25.98,0-1.35.09-2.07,1.79-2.06,14.15.07,28.31.07,42.46,0,1.71,0,1.91.72,1.78,2.07-.08.83,0,1.66-.02,2.5-.03,1.56-.94,2.36-2.4,2.46-1.49.1-3,.02-4.49.02-9.66,0-19.32.06-28.98-.05-1.83-.02-2.24.45-2.18,2.21.14,4.16.07,8.33.03,12.49-.01,1.1.43,1.38,1.46,1.37,5.83-.04,11.66-.04,17.49-.01,3.97.02,4.08.16,4.07,4.29,0,.17-.02.34,0,.5.27,1.66-.15,2.33-2.09,2.26-4.99-.18-9.99-.1-14.99-.04-1.94.02-3.89.25-5.83.38-.03,1.82-.09,3.64-.09,5.46-.01,4.33.09,8.66-.05,12.99-.06,1.78.38,2.22,2.19,2.2,10.99-.1,21.98-.05,32.97-.05,1.17,0,2.33.05,3.5-.02,1.07-.06,1.37.36,1.42,1.41.3,5.61.33,5.6-5.21,5.6h-36.97c-1,0-2,.04-3,0-2.07-.1-2.83-.85-2.84-3.02-.04-6.49-.01-12.99-.01-19.48v-7.49Z"/>
      <path class="cls-10" d="M270,249.99c0,8.83,0,17.66-.02,26.49,0,.78-.24,2.23-.38,2.23-1.23.01-2.5-.11-3.69-.45-.56-.16-1.18-.81-1.39-1.37-.97-2.59-3.31-3.97-4.98-5.94-1.56-1.84-3.07-3.72-4.6-5.59-1.43-1.74-3.62-2.83-4.28-5.23-.11-.42-.69-.7-1.02-1.07-3.77-4.1-7.61-8.15-11.29-12.33-2.88-3.26-5.57-6.68-8.34-10.03-.2-.24-.34-.51-.51-.77-.16.27-.46.53-.47.8-.05,1.33-.02,2.67-.02,4,0,12-.03,23.99.04,35.99,0,1.64-.16,2.56-2.12,2.24-1.14-.19-2.33-.09-3.49-.02-1.05.06-1.53-.31-1.43-1.39.05-.5,0-1,0-1.5,0-17.49,0-34.99.03-52.48,0-.88.34-2.49.63-2.52,1.21-.11,2.63-.68,3.67.67.6.79,1.66,1.31,2.05,2.16,1.28,2.78,3.79,4.44,5.7,6.64,1.69,1.95,3.26,4,4.97,5.93,1.61,1.8,3.28,3.5,4.67,5.55,2,2.93,4.6,5.46,6.98,8.13,3.16,3.53,6.37,7.02,9.52,10.56.39.44.44,1.17.81,1.64.25.32.81.6,1.18.54.31-.05.73-.6.76-.95.1-1.16.04-2.33.04-3.5,0-11.83.02-23.66-.03-35.49,0-1.38.15-2.03,1.82-2.05,5.21-.06,5.21-.14,5.21,5.13v23.99Z"/>
      <path class="cls-7" d="M458,249.91c0-9,.03-18-.03-27,0-1.38.15-2.05,1.82-2.04,13.83.07,27.67.05,41.5.02,1.2,0,1.88.19,1.73,1.6-.12,1.15-.11,2.34,0,3.5.15,1.49-.35,1.97-1.9,1.96-9.67-.07-19.33-.05-29-.02-2.3,0-4.59.16-6.89.25-.08,2.3-.21,4.6-.22,6.9-.02,2.82.06,5.63.1,8.45,2.95.13,5.89.32,8.84.37,3.83.06,7.67,0,11.5.02,2.51.01,2.51.03,2.54,2.75,0,.5,0,1,0,1.5-.03,2.73-.03,2.74-3.04,2.75-6.17.01-12.33.02-18.5-.02-1.02,0-1.48.24-1.48,1.35.04,6.17,0,12.33.07,18.5,0,.39.66,1.06,1.09,1.11,1.15.16,2.33.05,3.49.05,11.17,0,22.33.03,33.5-.03,1.55,0,1.9.47,1.91,1.95.05,5.08.11,5.08-4.75,5.08-13.17,0-26.33,0-39.5,0-2.77,0-2.79-.03-2.79-3,0-8.67,0-17.33,0-26Z"/>
      <path class="cls-10" d="M77,159.91c0-11.15,0-22.3,0-33.44,0-2.5.03-2.54,2.23-2.54,2.14,0,4.28.1,6.42.15.11,2.12.32,4.23.33,6.35.03,18.3.01,36.61.02,54.91,0,2.55.03,2.58,2.7,2.58,14.31.01,28.62,0,42.93,0,2.33,0,2.41-.55,2.37,2.41-.02,1.5.2,3.03-.08,4.48-.18.94-.21,2.97-2.41,1.3-.85-.65-2.56-.19-3.88-.19-15.14,0-30.28,0-45.42,0-.83,0-1.66,0-2.5,0-2.69-.03-2.71-.03-2.72-2.56-.01-11.15,0-22.3,0-33.44Z"/>
      <path class="cls-10" d="M340,243.48c0-6.82.09-13.65-.06-20.47-.04-1.91.56-2.15,2.25-2.15,4.81.02,4.81-.06,4.81,5.01,0,10.49.15,20.97-.09,31.45-.07,2.99.83,5.72,1.22,8.56.29,2.1,1.64,4.07,3.91,5.03,2.31.97,4.55,2.08,7.17,2.01,2.99-.08,6.01-.2,8.98.04,2.35.18,4.46-.59,6.47-1.32,4.38-1.59,5.15-5.69,5.27-9.62.24-7.65.07-15.31.07-22.97,0-5.49.03-10.98-.02-16.48-.01-1.25.29-1.79,1.64-1.7,1.98.13,3.97.08,5.96.1.14,1.94.4,3.88.41,5.82.04,10.32-.02,20.64.04,30.96.02,4.03-.95,7.84-2.03,11.65-1.22,4.3-4.12,7.11-8.29,8.46-3.92,1.27-7.9,2.43-12.14,2.05-4.02-.36-8.01.17-12.1-.89-8.07-2.1-13.14-7.41-13.41-15.59-.22-6.65-.04-13.31-.04-19.97Z"/>
      <path class="cls-8" d="M304.13,220.91c8.67,0,17.33.04,26-.04,1.55-.01,1.9.47,1.91,1.95.05,5.08.11,5.08-4.75,5.08-5.67,0-11.33-.01-17,0-2.26,0-2.29.04-2.29,2.5,0,14.33,0,28.66,0,43,0,1,0,2,0,3,.01,1.6-.96,2.32-2.38,2.48-.99.11-2,.07-3,.01-1.73-.11-2.56-.93-2.61-2.74-.07-2.83-.02-5.67-.02-8.5,0-12,0-24,0-36,0-3.73-.01-3.74-3.54-3.75-6.33,0-12.67-.02-19,.02-1.02,0-1.58-.24-1.46-1.36.02-.16,0-.33,0-.5q-.18-5.16,5.13-5.16h23Z"/>
      <path class="cls-8" d="M226,159.92c0-11.14,0-22.29,0-33.43,0-2.54.03-2.57,2.7-2.57,2.31,0,4.62.08,6.93.13.12,2.28.34,4.56.35,6.83.03,20.12.02,40.25.02,60.37,0,1.16.09,2.34-.02,3.49-.14,1.47-1.7,2.52-3.18,2.14-.73-.19-1.37-.83-2.09-.93-1.45-.2-2.93-.17-4.4-.24-.1-1.79-.29-3.57-.29-5.36-.03-10.15-.01-20.29-.01-30.44Z"/>
      <path class="cls-11" d="M355,166.91c-.46-3.63,1.24-6.84,2.59-9.89,1.79-4.07,3.64-8.17,6.32-11.87,2.54-3.5,5.56-6.48,8.8-9.16,4.75-3.92,9.98-7.24,14.87-11.03,8.04-6.24,15.29-13.29,22.37-20.54,1.16-1.19,1.95-2.75,2.89-4.15.02-.03-.2-.27-.34-.33-.14-.06-.33-.01-.49-.01,1.49-1.32,2.94-2.68,4.51-3.9.16-.13.98.58,1.49.9-.33.33-.67.67-1,1-.28.11-.55.22-.83.33.28.22.55.45.83.67-6.04,8.04-13.11,15.16-20.54,21.82-4.67,4.19-9.83,7.94-15.12,11.46-5.48,3.64-10.19,8.37-14.33,13.41-4.52,5.5-8.1,11.75-9.94,18.76-.39,1.49-1.6,2.84-1.06,4.55-1.5-.09-.85-1.24-1-2Z"/>
      <path class="cls-5" d="M321,193.91c.33.33.67.67,1,1-1.37,1.87-2.72,3.74-4.11,5.58-.1.14-.6.18-.64.11-.14-.25-.33-.68-.22-.85,1.29-1.97,2.64-3.9,3.98-5.85Z"/>
      <path class="cls-6" d="M343,148.91c-.67,1.71-1.33,3.41-2,5.12-.11.28-.28.54-.43.81-.19-.37-.53-.74-.54-1.12-.09-2.18.41-4.19,1.98-5.82.33.33.67.67,1,1Z"/>
      <path class="cls-4" d="M306,3.91c-.67-.33-1.33-.67-2-1,.31-.98-.82-2.76.77-2.9,2.37-.21.83,1.9,1.22,2.91.11.29.02.65.02.98Z"/>
      <path class="cls-3" d="M353,219.91c1.93.47.62,2.02,1,3-1.93-.47-.62-2.02-1-3Z"/>
      <path class="cls-2" d="M355,166.91c.15.76-.5,1.91,1,2-.83,4.35-2.08,8.63-2.02,13.12,0,.6-.27,1.21-.41,1.81-.19-.54-.57-1.09-.54-1.61.25-3.52-.69-7.11.89-10.58.5-1.1.02-2.63.12-3.95.02-.29.62-.53.95-.79Z"/>
      <path class="cls-9" d="M351.1,147.64c.38.48.78.77.88,1.13.27,1.06.29,2.2.65,3.22.33.92,2.22,1.25,1.04,2.77-.82-.71-1.9-1.28-2.4-2.18-.66-1.18-.91-2.61-1.21-3.95-.05-.2.58-.56,1.05-.99Z"/>
      <path class="cls-3" d="M354,210.91c.33.41.94.81.95,1.23.1,2.25.05,4.51.05,6.77-.33-.41-.94-.81-.95-1.23-.1-2.25-.05-4.51-.05-6.77Z"/>
    </g>
  </g>
</svg>