<?xml version="1.0" encoding="UTF-8"?>
<svg id="Layer_2" data-name="Layer 2" xmlns="http://www.w3.org/2000/svg" viewBox="0 0 160.07 224.02">
  <defs>
    <style>
      .cls-1 {
        fill: #262626;
      }

      .cls-1, .cls-2 {
        stroke-width: 0px;
      }

      .cls-2 {
        fill: #e0e0e0;
      }
    </style>
  </defs>
  <g id="Layer_2-2" data-name="Layer 2">
    <g id="Layer_1-2" data-name="Layer 1-2">
      <g>
        <path class="cls-1" d="M43.1,146.04c1.02-3.24,1.37-6.66,2.94-9.78,1.26-2.5,1.15-5.45,1.91-8.17.94-3.36.95-7,1.11-10.54.17-3.66.62-7.44-.09-10.96-1.22-6.04-2.31-12.13-5.41-17.73-3.91-7.06-7.84-14.09-11.98-21.02-2.19-3.65-4.24-7.5-5.55-11.68-1.01-3.21-2.49-6.3-3.96-9.34-3.63-7.51-6.19-15.43-8.98-23.26-.21-.58-.55-1.13-.66-1.72-.1-.54.03-1.13.06-1.7.35.28.85.49,1.04.86,2.1,4.05,5.14,7.55,7.3,11.48,4.24,7.72,9.87,14.46,14.4,21.97,3.2,5.3,7.78,9.74,11.47,14.77,2.68,3.65,5.94,6.92,7.57,11.34.43,1.15,1.04,1.66.05,2.85-1.28,1.54-2.21,3.39-3.22,5.14-.48.84-2.26,1.04-1.4,2.38.14.22,1.98-.48,2.92-.97,1.79-.93,3.67-3.15,5.43-2.15,1.41.8,1.99,3.38,2.54,5.28.96,3.28,2.23,6.46,2.58,9.95.38,3.77-1.28,6.48-3.62,9.03-.9.98-1.9,1.87-2.8,2.85-.21.23-.16.69-.23,1.04.45-.07,1,0,1.34-.23,1.43-1,2.8-2.1,4.2-3.15.21-.16.47-.26.7-.39.11.29.29.56.33.86.66,4.95-1.63,9.23-3.21,13.65-.41,1.15-1.21,2.16-1.76,3.27-.1.19.18.57.28.86.24-.11.58-.15.69-.33,1.22-1.95,2.24-.99,3.19.22.98,1.25,1.88,2.55,2.85,3.81.13.17.46.18.69.27.09-.29.35-.77.25-.86-2.03-1.84.06-4.87-1.92-6.75-.11-.11.41-1.23.87-1.54,2.72-1.83,5.38-3.83,8.3-5.28,10.33-5.15,20.19-11.05,29.65-17.68,2.93-2.05,6.08-3.79,9.13-5.68.17,0,.35-.05.49.01.14.06.36.3.34.33-.94,1.4-1.72,2.96-2.89,4.15-7.08,7.25-14.32,14.31-22.37,20.54-4.89,3.79-10.12,7.11-14.87,11.03-3.24,2.67-6.26,5.66-8.8,9.16-2.69,3.7-4.53,7.8-6.32,11.87-1.35,3.06-3.05,6.26-2.59,9.89-.33.26-.93.5-.95.79-.1,1.32.38,2.85-.12,3.95-1.58,3.47-.64,7.06-.89,10.58-.04.52.35,1.08.54,1.61.14-.6.42-1.21.41-1.81-.06-4.49,1.19-8.77,2.02-13.12-.54-1.71.67-3.06,1.06-4.55,1.85-7,5.43-13.26,9.94-18.76,4.14-5.04,8.85-9.77,14.33-13.41,5.29-3.52,10.45-7.26,15.12-11.46,7.43-6.67,14.51-13.79,20.54-21.82v-1c.33-.33.67-.67,1-1,2.92-2.06,3.99-5.46,5.99-8.19,1.02-1.39,1.96-2.84,2.97-4.25.14-.2.46-.28.69-.41.12.28.38.6.32.85-.28,1.37-.62,2.73-.98,4.07-1.17,4.33-2.29,8.68-3.57,12.98-1.85,6.22-4.79,11.99-7.75,17.71-2.46,4.76-5.42,9.19-8.97,13.3-1.37,1.58-2.44,2.13-4.18,1.9-.72-.09-1.93-.95-1.98-.87-.77,1.23.79,1.31,1.13,2.06.52,1.12.64,2.1-.37,3.07-2.03,1.96-4.04,3.95-5.99,5.99-.95,1-1.95.98-3.06.52-.43-.18-.77-.56-1.2-.72-1.86-.68-3.74-1.3-5.62-1.95.56,2.33,2.4,3.3,4.34,4.27.72.36,1.63.96.35,2.1-4.52,4.03-8.93,8.17-13.35,12.32-.69.65-1.19,1.49-1.78,2.25-.67.67-1.33,1.33-2,2-1.33,1.33-2.67,2.67-4,4-5.55,3.56-8.46,9.26-11.17,14.85-1.94,4.01-3.02,8.52-2.83,13.15-.33,1.35-.81,2.69-.96,4.06-.17,1.47-.04,2.98-.04,4.47v4.47c0,2.26-.05,4.52.05,6.77.02.42.62.82.95,1.23v3c-.15.76.5,1.91-1,2v-1c-.38-.98.93-2.53-1-3-.36-2.19.47-4.39-.87-6.65-.97-1.64.72-4.23-1.13-6,.32-2.93-.35-5.74-.98-8.58-.93-4.17-.49-8.57-2.01-12.65-.11-.29-.02-.66-.01-.99.05-8.7-1.7-17.33-1.01-26.05.09-1.16.02-2.33,0-3.49,0-.13-.21-.37-.28-.35-.24.05-.62.13-.68.29-1.41,3.84-3.95,7.03-6.03,10.48-2.9,4.8-5.86,9.56-8.82,14.33-3.04,4.9-6.11,9.79-9.17,14.68-.33-.33-.67-.67-1-1,4.45-7.98,8.1-16.33,10.51-25.13,1.07-3.91,2.55-7.78,2.55-11.98,0-1.69,1.08-3.45.86-5.07-.62-4.54-.94-9.16-2.22-13.56-1.93-6.66-4.56-13.07-7.24-19.49-3.14-7.53-6.68-14.89-9.69-22.48-.7-1.76-.56-2.85,1.01-3.26,3.02-.79,6.11-1.36,9.16-2.05.33-.08.61-.42.91-.64-.29-.11-.57-.32-.86-.32-3.5-.02-7-.06-10.5,0-1.8.03-2.86-.41-3.56-2.38-1.34-3.76-3.2-7.33-4.77-11.02-.62-1.45.63-2.18,1.58-2.56,1.44-.57,3.04-.71,4.56-1.08.25-.06.45-.35.67-.54-.27-.15-.54-.41-.82-.43-.83-.06-1.66-.02-2.5-.02-5.11-.04-5.35.02-6.55-4.85-.9-3.65-2.04-7.29-2.15-11.15-.06-2.19-1.19-4.26-.98-6.59.2-2.22.45-4.55-.95-6.58.55-4.18-1.09-8.49.93-12.62.46-.94.22-2.32.04-3.46-.71-4.62.77-9.07,1.25-13.56.35-3.35.83-6.86,1.78-10.19.67.33,1.33.67,2,1-.1,3.21,1.23,6.17,1.67,9.27.52,3.59,1.51,7.04,2.31,10.54,1.55,6.8,3.75,13.38,6.22,19.89,1.58,4.17,3.1,8.41,4.94,12.42,2.18,4.74,4.47,9.49,7.28,13.98,3.59,5.74,6.47,11.93,9.55,17.99,1.67,3.29,3.7,6.56,4.5,10.08.83,3.65,2.08,7.19,2.75,10.92.98,5.42.49,10.74.76,16.1.2,3.86-1.14,7.5-1.69,11.22-.57,3.92-2.19,7.6-2.3,11.58-1.57,1.63-2.07,3.64-1.98,5.82.02.38.35.74.54,1.12.14-.27.31-.53.43-.81.68-1.7,1.34-3.41,2-5.12v.04ZM51.2,144.77c-.47.43-1.09.78-1.05.99.3,1.35.55,2.77,1.21,3.95.5.89,1.58,1.46,2.4,2.18,1.19-1.52-.71-1.84-1.04-2.77-.36-1.02-.38-2.16-.65-3.22-.09-.37-.49-.66-.88-1.13h.01Z"/>
        <path class="cls-2" d="M73.1,163.04c.67-.67,1.33-1.33,2-2,2.09,2.52,5.39,2.66,8.09,3.89,5.46,2.47,11.33,4.01,16.54,7.1.39.23,1.04.17,1.28.47.68.85,1.56,1.77,1.69,2.75.12.85-.46,2.04-1.11,2.7-1.1,1.11-2.51,1.92-3.77,2.88-.26.2-.47.47-.71.7.26.17.55.51.79.47,2.86-.42,5.9,1.04,8.64-.85.34-.24.96-.04,1.44-.13,2.18-.44,4.36.55,6.69-.79,1.74-1.01,4.47.35,6.47-1.2,3.63.74,7.02-1.05,10.57-.98.44,0,.88.26,1.32.4-.42.47-.76,1.22-1.27,1.36-1.8.52-3.67,1.16-5.5,1.14-3.26-.05-6.23.95-9.32,1.67-3.04.71-6.14,1.04-9.12,2.11-2.05.73-4.29.99-6.46,1.27-3.28.42-6.32,1.47-9.44,2.52-2.95.99-5.72,2.31-8.59,3.4-4.02,1.53-7.53,3.8-10.84,6.35-2.62,2.01-4.83,4.58-7.09,7.02-.94,1.01-1.56,2.33-2.27,3.54-.11.2.07.62.21.88.03.07.52.02.66-.12,2.14-2.1,4.31-4.17,6.36-6.36,4.74-5.07,10.78-8.29,17.02-10.76,4.26-1.69,8.93-2.45,13.17-4.4,4.15.86,7.7-1.59,11.62-2.16,6.78-.99,13.66-1.82,20.07-4.54,1.91-.81,4.26.41,5.94-1.35,4.74-.25,9.01-2.49,13.62-3.39,1.94-.38,4.68-.08,5.91-2.6.06-.13.64-.07.96,0,.45.09,1.07.13,1.28.42.2.27.13,1.06-.13,1.28-1.69,1.47-3.28,3.28-5.26,4.15-1.92.84-3.45,2.14-5.23,3.06-1.48.77-3.78.39-4.83,1.42-1.53,1.5-3.03,1.69-4.88,1.69-.57,0-1.13.47-1.71.65-1.63.51-3.04,1.67-4.96,1.37-.66-.1-1.46.43-2.15.76-1.91.91-3.85,1.47-6.01,1.2-1.32-.17-2.64-.15-3.49,1.24-.22.35-.77.71-1.17.71-2.58,0-4.92.25-7.35,1.64-2.21,1.26-5.11,1.25-7.68,1.92-2.39.62-4.71,1.72-7.13,2.02-3.46.43-6.66,1.68-9.99,2.47-1.95.46-3.97.75-5.61,2.16-.55.47-1.4.61-2.14.82-5.01,1.4-9.27,4.27-13.57,7.01-2.67,1.7-5.44,3.43-7.57,5.71-1.61,1.72-3.08,3.99-2.98,6.7.03.89,0,1.75-1.21,1.56-1.28-.19-.66-1.27-.78-1.98-.05-.32,0-.67,0-1,1.5-.09.85-1.24,1-2,.17,0,.47.02.48,0,.46-2.59,1.44-5,2.5-7.4,1.23-2.79,1.7-6.16,3.57-8.37,2.19-2.6,1.91-6.52,5.07-8.41.28-.17.47-.95.32-1.27-.14-.3-.77-.45-1.2-.53-1.98-.38-3.72.42-5.44,1.2-3.45,1.56-3.44,1.57-5.29.79-.19-4.63.9-9.14,2.83-13.15,2.71-5.6,5.61-11.29,11.17-14.85,1.28,1.11,2.4,2.52,3.86,3.25,1.82.9,2.5,2.65,3.75,3.93,2.1,2.15,1.94,4.61-.09,6.8-2.42,2.61-5.36,4.45-8.5,6.02-2.9,1.45-5.93,2.6-8.72,4.26-.25.15-.18.86-.2,1.31,0,.04.51.22.66.13,4.52-2.69,9.99-3.33,14.26-6.65,1.29-1.01,3.08-1.36,4.62-2.06.7-.32,1.45-.66,2-1.17,1.47-1.35,2.87-2.78,4.25-4.23,1.54-1.62,1.64-4.58.05-6.07-1.02-.96-1.62-2.38-3.42-2.62-1.11-.15-2.22-1.18-3.1-2.05-.87-.87-1.36-2.12-2.18-3.06-.83-.96-1.6-2.22-3.24-1.79l-.03.02Z"/>
      </g>
    </g>
  </g>
</svg>