<svg xmlns="http://www.w3.org/2000/svg" viewBox="0 0 865.2 452.36"><defs><style>.cls-1{fill:#153c5a;}.cls-2{fill:#163c5a;}.cls-3{fill:#76aed4;}.cls-4{fill:#173e5c;}.cls-5{fill:#6fa7cc;}.cls-6{fill:#47789a;}.cls-7{fill:#4c7da0;}.cls-8{fill:#5284a7;}.cls-9{fill:#406f90;}.cls-10{fill:#2d5878;}.cls-11{fill:#588bae;}.cls-12{fill:#376484;}.cls-13{fill:#679dc1;}.cls-14{fill:#3b372d;}.cls-15{fill:#6094b8;}</style></defs><title>meti</title><g id="Layer_2" data-name="Layer 2"><g id="Layer_1-2" data-name="Layer 1"><path class="cls-1" d="M188.15,249.51v2.74q-.26,64.1-.52,128.19c0,.57,0,1.14,0,1.72,0,.84-.38,1.22-1.2,1.21-.38,0-.77,0-1.15,0H159c-2.33,0-2.36,0-2.36-2.35,0-7.63,0-15.26,0-22.89q0-77.26,0-154.52c0-4.26-.47-3.61,3.63-3.62q20,0,40.06,0c3.91,0,3.07-.62,4.48,2.93q26.93,67.87,53.81,135.75a7,7,0,0,0,1.5,2.92c.84-2,1.66-3.86,2.45-5.76q27.54-66.37,55.07-132.77A6,6,0,0,0,318,202c.39-1.69,1.45-2.08,3.12-2.07,12.78.07,25.56,0,38.34,0,2.88,0,2.73-.29,2.73,2.82V355.89q0,12.45,0,24.89c0,2.56,0,2.59-2.39,2.59H332.36c-2.41,0-2.43,0-2.43-2.59q0-16.87,0-33.76V249.09a6.25,6.25,0,0,0-1.73,2.92l-47.3,114c-2.08,5-4.28,10-6.19,15.06-.72,1.9-1.72,2.34-3.6,2.32-8.48-.1-17,0-25.46-.05-2.88,0-2.48.32-3.64-2.55Q216,316.61,190,252.37c-.39-1-.8-1.93-1.2-2.9Z"/><path class="cls-2" d="M407.94,291.57v-84.4c0-.76,0-1.53,0-2.29a4.8,4.8,0,0,1,4.9-4.89c.76-.05,1.52,0,2.28,0q73.25,0,146.48-.06c4.78,0,7.55,1.25,7.25,7.24-.26,5-.24,10.12,0,15.16.22,4.45-2.59,6.25-6.22,6.24q-54.64-.15-109.28-.06c-1.24,0-2.48,0-3.72,0-3.28.12-5.08,1.9-5.09,5.24q0,18,0,36.05c0,3.5,1.76,5.17,5.33,5.24,2.48,0,5,0,7.44,0h95.56a20.39,20.39,0,0,1,3.13.1,4.57,4.57,0,0,1,4.16,4.68q.12,9,0,18a4.48,4.48,0,0,1-4.48,4.62c-1,.08-1.91,0-2.86,0h-101a19.51,19.51,0,0,0-3.42.17,4.59,4.59,0,0,0-3.86,4.34c-.05.57,0,1.15,0,1.72v39.48c0,.48,0,.95,0,1.43a4.78,4.78,0,0,0,4.53,4.66,27.22,27.22,0,0,0,2.86,0H564.37c.76,0,1.53.06,2.29,0,5-.44,7.08,1.72,6.84,6.95-.23,5.05,0,10.11,0,15.16,0,.67,0,1.34,0,2a4.68,4.68,0,0,1-4.6,4.86,21.82,21.82,0,0,1-2.29.05H414.93c-.39,0-.77,0-1.15,0-4.15.21-5.91-2.59-5.89-6C408,348.79,407.94,320.18,407.94,291.57Z"/><path class="cls-2" d="M680.9,200h80.69c.66,0,1.33,0,2,0,2.61.1,3.68,1.06,3.7,3.64q.08,10.59,0,21.18c0,2.72-1.06,3.68-3.9,3.69q-12,0-24,0H704.16a15.75,15.75,0,0,0-2.28.06,2.83,2.83,0,0,0-2.58,2.63,24.74,24.74,0,0,0,0,2.86V378c0,4.93-.48,5.42-5.37,5.42h-26c-.67,0-1.34,0-2,0-2.14-.21-3.06-1.15-3.19-3.28,0-.76,0-1.52,0-2.28V233.87c0-5-.41-5.37-5.37-5.37H598.63c-3.1-.06-4-1-4-4.17,0-1.62,0-3.24,0-4.86,0-4.58.11-9.16,0-13.74-.14-4.92.75-5.8,5.65-5.79C627.11,200,654,200,680.9,200Z"/><path class="cls-2" d="M804.52,291.44V204.19c0-3.57-.33-3.14,3.26-3.14q15,0,30,0c.67,0,1.33,0,2,0s1.24.35,1.24,1.18c0,.67,0,1.34,0,2V379c0,.48,0,1,0,1.43-.08,1.83-.08,1.89-2,1.9q-16.3,0-32.61,0c-1.86,0-1.86-.07-1.93-1.94,0-.67,0-1.33,0-2Z"/><path class="cls-3" d="M47.26,42.76a14.47,14.47,0,0,1,4.1-3,124.81,124.81,0,0,1,42.19-16.1,177.88,177.88,0,0,1,24.9-3.05c4.28-.23,8.56-.21,12.84-.41,9.25-.42,18.18,1.31,27,3.74a245.67,245.67,0,0,1,46.76,18.22,238.21,238.21,0,0,1,24.58,14.54c.55.37,1.18.63,1.5,1.27-3.33.25-6.62-.44-9.93-.5s-6.81-.59-10.21-.79a50.51,50.51,0,0,1-7.07-.51c-3.65-.76-7.36-.59-11-.93-3.48-.31-7-.63-10.49-.81-4.53-.24-9-1-13.58-1a3.94,3.94,0,0,1-1.14-.08c-3.32-1-6.79-.57-10.17-.9-3.55-.34-7.17-.67-10.76-.87a47.33,47.33,0,0,1-7.64-.57c-3.46-.77-7-.44-10.46-.87s-7.17-.68-10.77-.86a72.79,72.79,0,0,1-7.36-.51c-4-.64-8.1-.66-12.15-1-3.12-.3-6.24-.46-9.35-.7-4.44-.34-8.84-1-13.3-1a6.7,6.7,0,0,1-1.42-.09c-3.44-.76-7-.71-10.45-1s-7.15-.82-10.78-.74c-1.45,0-3-.54-4.5-.5A1.38,1.38,0,0,1,47.26,42.76Z"/><path class="cls-4" d="M66.76,170.16c-.31,3.51-.72,7-.9,10.53A167,167,0,0,0,67,212.38a191,191,0,0,0,23.37,68.56c1.26,2.24,2.61,4.43,3.92,6.64-.22.4-.62.34-1,.38-25.69-20.86-45.22-46.11-55.3-78a147.63,147.63,0,0,1-6.52-54.09c2.66-.49,4.72,1.05,6.94,2.05,6.82,3,13.61,6.18,20.5,9.07C61.52,168.05,63.89,169.75,66.76,170.16Z"/><path class="cls-3" d="M125.46,12.53C180.67-9.91,249.4-3.09,297.76,40.08c-2-.33-3.49-1.32-5.16-1.94A163.23,163.23,0,0,0,257,29.27a177.5,177.5,0,0,0-28.77-1.56,188.59,188.59,0,0,0-28.63,3.08A4.4,4.4,0,0,1,196,30.5c-8.45-5.4-17.83-8.51-27.44-11.07a210.07,210.07,0,0,0-32-5.65C133,13.4,129.33,13.42,125.46,12.53Z"/><path class="cls-3" d="M48.06,87.73a65.2,65.2,0,0,1,4-8.52,8.85,8.85,0,0,1,3-3c6.77-4.95,14.36-8.2,22.3-10.69a148.55,148.55,0,0,1,28.46-5.68,184.41,184.41,0,0,1,22.78-1.29c.63,0,1.26,0,1.83,0,.15.86-.33,1.11-.66,1.41A219.78,219.78,0,0,0,98,94.68c-2.75,3.75-5.32,7.64-8,11.47-7.48-3.77-15.22-7-22.82-10.49-3.79-1.76-7.56-3.59-11.46-5.1C53.23,89.56,50.93,87.84,48.06,87.73Z"/><path class="cls-4" d="M14.24,258.26a140.21,140.21,0,0,1-12-36.82,124.66,124.66,0,0,1-1.62-35.6,113.56,113.56,0,0,1,20.12-54,131.08,131.08,0,0,1,12.49-15.33c.15.27.3.41.28.5-4.17,13.1-5.54,26.64-6.13,40.29-.15,3.43.2,6.91-.33,10.28s-2.79,6-4.13,9c-8.28,18.68-12.49,38.16-11.51,58.64a105.14,105.14,0,0,0,3.78,23.09Z"/><path class="cls-5" d="M47.26,42.76a1.38,1.38,0,0,0,1.35.87c1.53,0,3,.53,4.5.5,3.63-.08,7.2.47,10.78.74s7,.22,10.45,1a6.7,6.7,0,0,0,1.42.09c4.46,0,8.86.7,13.3,1,3.11.24,6.23.4,9.35.7,4,.38,8.12.4,12.15,1a72.79,72.79,0,0,0,7.36.51c3.6.18,7.22.43,10.77.86s7,.1,10.46.87a47.33,47.33,0,0,0,7.64.57c3.59.2,7.21.53,10.76.87,3.38.33,6.85-.1,10.17.9a3.94,3.94,0,0,0,1.14.08c4.55,0,9,.79,13.58,1,3.5.18,7,.5,10.49.81,3.66.34,7.37.17,11,.93a50.51,50.51,0,0,0,7.07.51c3.4.2,6.78.73,10.21.79s6.6.75,9.93.5a115,115,0,0,1,15.32,11.48c-2.57,0-5.16.15-7.71-.13-4-.43-7.9-.76-11.86-1.07-3-.23-6.06-.38-9.07-.64-4.43-.38-8.83-1-13.29-1a11,11,0,0,1-1.42-.09,109.69,109.69,0,0,0-11.87-1,8.14,8.14,0,0,0-1.71,0,1.53,1.53,0,0,0-1.35,1.59,174.92,174.92,0,0,0-32.49-9.68c-.83-.16-1.64-.45-2.47-.68-.64-.68-1.47-.39-2.24-.44l-1.2-.14c-.81-.75-1.82-.33-2.73-.46l-1.28-.13c-.84-.73-1.85-.32-2.79-.42l-1.79-.16c-1.24-.81-2.62-.27-3.93-.41l-2.94-.16a2.42,2.42,0,0,0-1.88-.41H114a2.33,2.33,0,0,0-1.87.44c-7.3.6-14.55,1.62-21.77,2.85.31-.6.69-1.17-.21-1.66a5.43,5.43,0,0,0-2.48-.5,84.37,84.37,0,0,1-9-.74c-3.37-.5-6.77-.44-10.14-.81-3.54-.37-7.13-.75-10.73-.84-2.62-.07-5.28-.3-7.9-.56a125.09,125.09,0,0,0-13.25-1,47.5,47.5,0,0,1,9.15-7.45l.46-.39Z"/><path class="cls-6" d="M220.81,92.89c1.91.16,3,1.85,4.64,2.54,2.78,1.14,5.34,2.77,8.23,3.71a5.86,5.86,0,0,1,2.65,1.61c-1.39,1.23-3.21.93-4.81,1.21-5.67,1-11.39,1.62-17.08,2.49-4.19.64-8.35,1.49-12.54,2.13-6.8,1-13.63,2-20.43,3-7.18,1.08-14.35,2.2-21.5,3.43a7.62,7.62,0,0,0-3.72,1.08,6.25,6.25,0,0,0,4.56,1.71c1.29,0,2.67-.42,3.88.41a81,81,0,0,1-8.54-.22c-10.47-.28-20.93.1-31.38.75-8.55.53-17.06,1.39-25.55,2.48-3.65.48-7.3,1-11.18,1.57.14-2.62,1.34-4.64,2.38-6.71,3.64-.58,7.28-1.13,10.91-1.73,4.2-.69,8.39-1.35,12.61-1.88,4.4-.55,8.76-1.43,13.15-2.11,4.19-.66,8.41-1.22,12.61-1.87,4.38-.68,8.75-1.46,13.14-2.14,4.2-.65,8.41-1.21,12.61-1.86,5.69-.89,11.37-1.84,17.06-2.72,4.2-.64,8.42-1.19,12.62-1.84,4.48-.69,9-1.46,13.42-2.18,3.63-.58,7.27-1.16,10.91-1.69C220.22,93.93,220.74,93.72,220.81,92.89Z"/><path class="cls-7" d="M220.81,92.89c-.07.83-.59,1-1.35,1.15-3.64.53-7.28,1.11-10.91,1.69-4.47.72-8.94,1.49-13.42,2.18-4.2.65-8.42,1.2-12.62,1.84-5.69.88-11.37,1.83-17.06,2.72-4.2.65-8.41,1.21-12.61,1.86-4.39.68-8.76,1.46-13.14,2.14-4.2.65-8.42,1.21-12.61,1.87-4.39.68-8.75,1.56-13.15,2.11-4.22.53-8.41,1.19-12.61,1.88-3.63.6-7.27,1.15-10.91,1.73A31,31,0,0,1,94.73,106a3.47,3.47,0,0,0,.85,0c4.73-.94,9.52-1.57,14.28-2.29,4-.61,8-1.27,12.07-1.82,4.21-.57,8.36-1.6,12.58-2.06,4.43-.49,8.77-1.47,13.2-2,5.72-.66,11.39-1.76,17.08-2.66L178.23,93c2.71-.44,5.42-.88,8.13-1.3,4.39-.67,8.78-1.36,13.19-2,3.46-.47,6.88-1.3,10.38-1.49A58.79,58.79,0,0,1,220.81,92.89Z"/><path class="cls-8" d="M209.93,88.29c-3.5.19-6.92,1-10.38,1.49-4.41.6-8.8,1.29-13.19,2-2.71.42-5.42.86-8.13,1.3l-13.44,2.13c-5.69.9-11.36,2-17.08,2.66-4.43.52-8.77,1.5-13.2,2-4.22.46-8.37,1.49-12.58,2.06-4,.55-8.05,1.21-12.07,1.82-4.76.72-9.55,1.35-14.28,2.29a3.47,3.47,0,0,1-.85,0,48.26,48.26,0,0,1,6.46-9.67,9.54,9.54,0,0,0,1.7-.09c5.54-1.21,11.17-1.81,16.75-2.75,4.19-.69,8.41-1.2,12.6-1.87s8.36-1.48,12.55-2.11c5.69-.87,11.43-1.45,17.09-2.47s11.57-1.71,17.32-2.75c4-.72,8.08-.92,11.94-2.3l1.1.23a1,1,0,0,0,.91.4,68.57,68.57,0,0,0,8.64,2.69A44.43,44.43,0,0,1,209.93,88.29Z"/><path class="cls-9" d="M164.69,116.19c-1.21-.83-2.59-.4-3.88-.41a6.25,6.25,0,0,1-4.56-1.71A7.62,7.62,0,0,1,160,113c7.15-1.23,14.32-2.35,21.5-3.43,6.8-1,13.63-1.94,20.43-3,4.19-.64,8.35-1.49,12.54-2.13,5.69-.87,11.41-1.52,17.08-2.49,1.6-.28,3.42,0,4.81-1.21l.53.26.63.41A98.5,98.5,0,0,1,253,111.14c-.83.2-1.64.48-2.48.6-6.79,1-13.61,1.86-20.39,3-5.94,1-11.89,1.89-17.84,2.78-2.05.31-4.08.73-6.11,1.16-1.25.27-1.5,1-.8,2.09-5.17-.74-10.35-1.55-15.54-2.2s-10.6-1.18-15.9-1.76c-2.24-.94-4.58-.43-6.88-.48Z"/><path class="cls-10" d="M66.76,170.16c-2.87-.41-5.24-2.11-7.84-3.19-6.89-2.89-13.68-6-20.5-9.07-2.22-1-4.28-2.54-6.94-2.05-.17-5.12.66-10.15,1.29-15.2a36.82,36.82,0,0,1,1.28-7.21,11.55,11.55,0,0,1,5,1c8.11,3.68,16.19,7.43,24.36,11,2.6,1.12,5.06,2.53,7.69,3.56C69.35,156,68,163.07,66.76,170.16Z"/><path class="cls-11" d="M191.14,82c-3.86,1.38-7.95,1.58-11.94,2.3-5.75,1-11.56,1.71-17.32,2.75s-11.4,1.6-17.09,2.47c-4.19.63-8.36,1.45-12.55,2.11s-8.41,1.18-12.6,1.87c-5.58.94-11.21,1.54-16.75,2.75a9.54,9.54,0,0,1-1.7.09,65.36,65.36,0,0,1,9.64-11.48,38.28,38.28,0,0,0,5.94-.36c2.7-.43,5.41-.88,8.11-1.3,4.57-.71,9.15-1.38,13.71-2.09,4-.62,8-1.42,12-1.88,4.42-.49,8.74-1.62,13.19-1.8a1.7,1.7,0,0,0,1.5-1.15l1.75.19c.48.56,1.12.43,1.74.38A118.64,118.64,0,0,1,184.65,80,32.77,32.77,0,0,1,191.14,82Z"/><path class="cls-12" d="M205.34,120.77c-.7-1.07-.45-1.82.8-2.09,2-.43,4.06-.85,6.11-1.16,5.95-.89,11.9-1.79,17.84-2.78,6.78-1.14,13.6-2,20.39-3,.84-.12,1.65-.4,2.48-.6a115.57,115.57,0,0,1,16.53,12.62,37.57,37.57,0,0,0-5.05.51c-6.78,1.12-13.61,2-20.39,3-1.23.2-3,.12-3.2,2.16-4-1.12-8-2.32-12.07-3.34-5.89-1.48-11.82-2.84-17.73-4.26a1.18,1.18,0,0,0-1.2-.33l-1.66-.23A1.19,1.19,0,0,0,207,121Z"/><path class="cls-10" d="M240.85,129.47c.16-2,2-2,3.2-2.16,6.78-1.09,13.61-1.92,20.39-3a37.57,37.57,0,0,1,5.05-.51,136.52,136.52,0,0,1,17.41,16.42c1.6,1.84,3.54,3.42,5.19,5.26,3.86,4.35,7.64,8.77,11.15,13.41a.74.74,0,0,0,.6.8l.13.19-.69.52a191.44,191.44,0,0,0-26.48-16,253.93,253.93,0,0,0-33.26-13.81c-.53-.19-1.06-.42-1.58-.63a1.11,1.11,0,0,0-1.06-.41Z"/><path class="cls-13" d="M36.61,51.12a125.09,125.09,0,0,1,13.25,1c2.62.26,5.28.49,7.9.56,3.6.09,7.19.47,10.73.84,3.37.37,6.77.31,10.14.81a84.37,84.37,0,0,0,9,.74,5.43,5.43,0,0,1,2.48.5c.9.49.52,1.06.21,1.66l-1.11.17a1.22,1.22,0,0,0-1.15.35,186.7,186.7,0,0,0-19,5.68,1.72,1.72,0,0,0-1.95-2c-2.21,0-4.33-.67-6.5-.63-3.62.07-7.18-.58-10.78-.77-2.63-.14-5.31-.16-7.93-.5a117.88,117.88,0,0,0-12.72-1A41.14,41.14,0,0,1,36.61,51.12Z"/><path class="cls-14" d="M173.23,451.92a1.53,1.53,0,0,1-.52.22c-4.07.14-3.28,0-3.3-3.09,0-5.52,0-11,0-16.56-1-.13-1.07.72-1.4,1.2-3,4.3-5.92,8.63-8.91,12.93-1.31,1.88-1.71,1.89-3.09,0-2.9-3.89-5.74-7.83-8.63-11.73a7.72,7.72,0,0,0-1.79-2.12c-.74.53-.44,1.25-.44,1.85,0,5.14,0,10.29,0,15.43,0,1.9-1.42,2.76-3.18,2a.93.93,0,0,1-.61-.86c0-.47,0-.95,0-1.43,0-7.23,0-14.47,0-21.71,0-.7-.4-1.79.51-2,1.13-.26,2.46-.62,3.49.42a11.6,11.6,0,0,1,1.05,1.35c3.13,4.2,6.25,8.4,9.41,12.58a5.87,5.87,0,0,0,2,2.18c1.25-1.77,2.52-3.54,3.76-5.33,2.29-3.28,4.56-6.57,6.86-9.84a4.23,4.23,0,0,1,4.46-1.49c.58.21.59.67.59,1.14,0,1.33,0,2.67,0,4,0,6,0,12,0,18A6.51,6.51,0,0,1,173.23,451.92Z"/><path class="cls-15" d="M252.5,74.69l1,.68a.94.94,0,0,0,.37.37l.14.12.47.45.1.09.5.47a40.39,40.39,0,0,1,6.5,6.24c-1.67.82-3.35-.09-5,0-3.62.25-7.18-.49-10.78-.71-4.33-.26-8.69-.57-13-1.07-3.38-.39-6.81-.2-10.16-.94-1.45-.32-2.88-.25-3.48,1.53L203,73.53c.16-1.37,1.19-1.25,2.14-1.25,4.93,0,9.8.67,14.7,1,3.3.21,6.58.75,9.9.73a17.16,17.16,0,0,1,3.13.12c3.54.65,7.14.61,10.71,1,1.59.18,3.18.11,4.79.44C249.73,75.82,251.46,76.44,252.5,74.69Z"/><path class="cls-12" d="M71.07,149c-2.63-1-5.09-2.44-7.69-3.56-8.17-3.54-16.25-7.29-24.36-11a11.55,11.55,0,0,0-5-1,39.11,39.11,0,0,1,1.73-8.58,7.34,7.34,0,0,1,3.31.74c1.79.88,3.63,1.66,5.45,2.46,8.08,3.57,16.18,7.11,24.24,10.71a11.32,11.32,0,0,1,4.48,2.95A43.08,43.08,0,0,1,71.07,149Z"/><path class="cls-14" d="M326.68,440.25c-3.72,0-7.24.05-10.77,0-1.35,0-1.89.38-1.8,1.78s0,3.05,0,4.58c0,1.79.06,1.83,2,1.84,5.73,0,11.45,0,17.17,0,1.86,0,1.86.15,1.94,1.94.06,1.36-.41,1.83-1.8,1.82q-11-.07-22,0c-1.22,0-1.69-.42-1.69-1.66q.06-11.58,0-23.17c0-1.17.53-1.44,1.57-1.44,7.34,0,14.69,0,22,0,1.24,0,1.76.4,1.63,1.63-.06.56-.07,1.13-.1,1.76a12.32,12.32,0,0,1-4,.22c-5,0-9.92.05-14.87,0-1.31,0-2,.32-1.84,1.75.22,1.77-.78,4,.48,5.2,1,1,3.09.27,4.7.31,1.81.05,3.62,0,5.43,0,2.05,0,2.05,0,2.07,2A14.62,14.62,0,0,1,326.68,440.25Z"/><path class="cls-15" d="M165.31,76.24a1.7,1.7,0,0,1-1.5,1.15c-4.45.18-8.77,1.31-13.19,1.8-4,.46-8,1.26-12,1.88-4.56.71-9.14,1.38-13.71,2.09-2.7.42-5.41.87-8.11,1.3a38.28,38.28,0,0,1-5.94.36c2.82-3.9,6.67-6.77,10.06-10.1a2.76,2.76,0,0,1,1.8-.73,144.35,144.35,0,0,1,21.41-.18c5.13.33,10.25.73,15.36,1.37A22.93,22.93,0,0,1,165.31,76.24Z"/><path class="cls-13" d="M252.5,74.69c-1,1.75-2.77,1.13-4.11.86-1.61-.33-3.2-.26-4.79-.44-3.57-.38-7.17-.34-10.71-1a17.16,17.16,0,0,0-3.13-.12c-3.32,0-6.6-.52-9.9-.73-4.9-.32-9.77-1-14.7-1-.95,0-2-.12-2.14,1.25L188.2,67.05a1.53,1.53,0,0,1,1.35-1.59,8.14,8.14,0,0,1,1.71,0,109.69,109.69,0,0,1,11.87,1,11,11,0,0,0,1.42.09c4.46,0,8.86.66,13.29,1,3,.26,6,.41,9.07.64,4,.31,7.91.64,11.86,1.07,2.55.28,5.14.1,7.71.13l.07,0,.59.5C249,71.42,251.06,72.73,252.5,74.69Z"/><path class="cls-6" d="M78.87,127.22A38.92,38.92,0,0,1,76,134.09c-3.49-1.65-7-3.35-10.49-4.94C58.71,126.08,51.91,123,45,120.07c-2.4-1-4.62-2.66-7.41-2.6A32.89,32.89,0,0,1,39.74,110a15.43,15.43,0,0,1,5.1,1.66c4.2,2,8.45,3.83,12.67,5.75C64.64,120.62,72,123.4,78.87,127.22Z"/><path class="cls-11" d="M219.1,82c.6-1.78,2-1.85,3.48-1.53,3.35.74,6.78.55,10.16.94,4.31.5,8.67.81,13,1.07,3.6.22,7.16,1,10.78.71,1.68-.12,3.36.79,5,0a57.64,57.64,0,0,1,7.78,8.07c-2.56,0-5.19.29-7.67-.17a93.76,93.76,0,0,0-9.56-.86c-3.66-.31-7.32-1.09-11-.73a2.67,2.67,0,0,1-1.11-.18c-1.85-.68-3.77-.24-5.65-.36-1.13-.08-1.52.54-1.47,1.57Z"/><path class="cls-9" d="M37.62,117.47c2.79-.06,5,1.58,7.41,2.6,6.88,2.92,13.68,6,20.49,9.08,3.52,1.59,7,3.29,10.49,4.94a44,44,0,0,1-2.75,7.63,11.32,11.32,0,0,0-4.48-2.95c-8.06-3.6-16.16-7.14-24.24-10.71-1.82-.8-3.66-1.58-5.45-2.46a7.34,7.34,0,0,0-3.31-.74A28.49,28.49,0,0,1,37.62,117.47Z"/><path class="cls-8" d="M78.87,127.22c-6.87-3.82-14.23-6.6-21.36-9.86-4.22-1.92-8.47-3.79-12.67-5.75a15.43,15.43,0,0,0-5.1-1.66A27.66,27.66,0,0,1,42,103.08c3.44.26,6.24,2.23,9.26,3.53,8.53,3.68,17,7.64,25.41,11.48,1.8.81,3.62,1.56,5.44,2.34-1.16,1.31-1.07,3.16-2,4.57C79.6,125.69,79.56,126.63,78.87,127.22Z"/><path class="cls-14" d="M399.11,436.54c-.48-2.64-.48-2.65-3.35-2.65-4,0-8,.05-12,0-1.38,0-1.82.42-1.8,1.79.08,3.91.05,7.82,0,11.73,0,1.07.32,1.51,1.46,1.5,4.68-.05,9.35,0,14,0,.91,0,1.32-.23,1.4-1.27.35-4.52.39-4.52-4.15-4.52-1,0-1.91,0-2.86,0-1.55-.05-2-.62-1.69-2.11.11-.57.39-.83.93-.83l10.87,0c.75,0,1,.39,1,1.06,0,2.48.05,5-.1,7.43-.13,2-1,3.07-3,3.25a108.9,108.9,0,0,1-19.11,0c-1.64-.15-2.43-1.28-2.72-2.86a27.12,27.12,0,0,1-.2-4.85c0-3-.09-5.92,0-8.87.14-3.49,1.28-4.62,4.75-4.67q7.86-.12,15.73,0c3,0,4.27,1.23,4.54,3.69.13,1.23-.08,2.08-1.56,2C400.58,436.31,399.89,436.85,399.11,436.54Z"/><path class="cls-14" d="M621.31,440.12c0,2.86.11,5.43,0,8s-1.15,3.51-3.69,3.92a14.47,14.47,0,0,1-2.28.14c-4.39,0-8.77,0-13.16,0a14.9,14.9,0,0,1-2.83-.26c-2-.41-3-1.24-3-3.24-.13-4.86-.14-9.72,0-14.58.07-2.07,1.18-3,3.27-3.38a7.43,7.43,0,0,1,1.42-.12c5.15,0,10.29,0,15.44,0,3.14,0,4.5,1.19,4.84,3.75.14,1.08,0,1.89-1.36,2a18.22,18.22,0,0,0-2.17.34c-.6-.31-.55-.83-.52-1.28.08-1.12-.43-1.5-1.51-1.49-4.67,0-9.35,0-14,0-1.14,0-1.46.47-1.44,1.54,0,4,0,8,0,12,0,1.15.45,1.46,1.52,1.45,4.67,0,9.34,0,14,0,1.13,0,1.49-.44,1.45-1.51,0-1.32,0-2.65,0-4.28-2.52,0-4.88,0-7.24,0-1.44,0-1.76-.53-1.59-2a1,1,0,0,1,1.11-1Z"/><path class="cls-15" d="M29.25,58.56A117.88,117.88,0,0,1,42,59.6c2.62.34,5.3.36,7.93.5,3.6.19,7.16.84,10.78.77,2.17,0,4.29.66,6.5.63a1.72,1.72,0,0,1,1.95,2,124.81,124.81,0,0,0-12.5,5.74,4.2,4.2,0,0,1-1.8.77c0-.79-.06-1.44-1-1.76a9.52,9.52,0,0,0-3.34-.51,88.58,88.58,0,0,1-10.42-.76c-3.74-.34-7.5-.4-11.24-.89a25.92,25.92,0,0,1-5-.69,31.3,31.3,0,0,1,4.95-6.27,1,1,0,0,0,.38-.38Z"/><path class="cls-14" d="M273.93,430.58c2.57,0,5.14,0,7.72,0,3.85.07,5,1.18,5.05,4.91.05,4,.06,8,0,12,0,3.22-1.05,4.49-4.19,4.58q-8.85.24-17.71,0c-3.06-.09-4-1.26-4-4.39q-.12-6.29,0-12.57c.07-3.27,1.27-4.4,4.59-4.5C268.21,430.52,271.07,430.59,273.93,430.58Zm-.29,3.32c-2.47,0-4.94,0-7.41,0-.89,0-1.42.2-1.41,1.24,0,4.18,0,8.36,0,12.54,0,.83.3,1.2,1.16,1.2q7.69,0,15.39,0c1,0,1.28-.45,1.27-1.38,0-4.08,0-8.17,0-12.25,0-1.25-.64-1.37-1.6-1.36C278.58,433.91,276.11,433.89,273.64,433.9Z"/><path class="cls-11" d="M23.79,65.35a25.92,25.92,0,0,0,5,.69c3.74.49,7.5.55,11.24.89a88.58,88.58,0,0,0,10.42.76,9.52,9.52,0,0,1,3.34.51c1,.32,1,1,1,1.76C51,71.85,47.7,74.47,44.12,76.72c-.77.48-1.35,1.39-2.45,1.27,0-.77,0-1.71-1.07-1.65-2.3.13-4.48-.82-6.78-.65a17.74,17.74,0,0,1-3.42-.07,96.83,96.83,0,0,0-12.72-1.05A42.31,42.31,0,0,1,23.79,65.35Z"/><path class="cls-14" d="M245.31,444.25l8.55,7.64c-3.06.52-5.38.62-7.31-1.73-1.32-1.61-3.16-2.8-4.42-4.45-1.94-2.53-4.53-1.89-7-1.88-.73,0-.85.64-.85,1.24,0,1.81-.08,3.62,0,5.43.07,1.47-.64,1.74-1.91,1.7-2-.05-2.21-.07-2.23-1.64,0-3.91,0-7.81,0-11.72,0-2.19,0-4.38,0-6.57,0-1.17.3-1.72,1.6-1.71,5.43.05,10.86,0,16.28.06,2.7,0,3.79,1.19,3.94,3.86a49,49,0,0,1,0,5.14c-.13,2.75-1.31,3.88-4.11,4.05-.75.05-1.5,0-2.25,0Zm-4.48-10.34v0h-2c-5.09,0-5.06,0-4.62,5.23.09,1.09.47,1.52,1.55,1.5,2.66,0,5.33,0,8,0,4.11,0,4.37-.29,4.08-4.4,0-.19,0-.38,0-.57a1.65,1.65,0,0,0-1.84-1.73C244.25,433.9,242.54,433.91,240.83,433.91Z"/><path class="cls-8" d="M232.84,90.45c-.05-1,.34-1.65,1.47-1.57,1.88.12,3.8-.32,5.65.36a2.67,2.67,0,0,0,1.11.18c3.71-.36,7.37.42,11,.73a93.76,93.76,0,0,1,9.56.86c2.48.46,5.11.14,7.67.17l.1.11.45.47.12.13a.87.87,0,0,0,.38.38,47.26,47.26,0,0,1,5.86,6.92c-3.9.27-7.75-.52-11.63-.74-4.24-.23-8.47-.79-12.73-1a15.73,15.73,0,0,1-2.8-.39c-1.77-.4-3.59-.59-5,1C240.25,95.7,236.51,93.13,232.84,90.45Z"/><path class="cls-14" d="M532.27,444.16l8.65,7.75c-3.19.56-5.57.49-7.54-2a60.11,60.11,0,0,0-5.08-5,3.29,3.29,0,0,0-2.16-1.18c-4.85-.42-4.85-.45-4.85,4.44a21.65,21.65,0,0,0,0,2.28c.15,1.48-.62,1.75-1.89,1.72-2.12,0-2.19,0-2.19-2.24,0-5.81,0-11.61,0-17.42,0-1.89,0-1.94,1.85-2,5.14,0,10.29,0,15.43,0,3.31,0,4.44,1.21,4.51,4.49,0,1.52.05,3.05,0,4.57-.11,2.57-1.32,3.78-3.88,4-.48,0-1,0-1.43,0S532.77,443.5,532.27,444.16Zm-4.74-3.56H531c3.91,0,4.23-.35,4-4.27-.13-2.07-.43-2.39-2.64-2.44s-4.2,0-6.3,0c-5.28,0-5.25,0-4.74,5.39.1,1,.45,1.35,1.4,1.33C524.29,440.58,525.91,440.6,527.53,440.6Z"/><path class="cls-11" d="M82.1,120.43c-1.82-.78-3.64-1.53-5.44-2.34-8.46-3.84-16.88-7.8-25.41-11.48-3-1.3-5.82-3.27-9.26-3.53a20.88,20.88,0,0,1,2-5.61c2.57.12,4.62,1.58,6.86,2.58,8.63,3.85,17.25,7.76,25.93,11.51,2.68,1.16,5.26,2.5,7.93,3.68A28.24,28.24,0,0,1,82.1,120.43Z"/><path class="cls-14" d="M565.85,436c0,5.07,0,9.71,0,14.35,0,1.82-.14,1.88-2,1.87s-1.87,0-1.88-2q0-8.71,0-17.43c0-2.09,1.41-2.93,3.29-1.95a8.68,8.68,0,0,1,1.52,1.28q8,7.09,16,14.24c.7-.49.27-1.2.27-1.78,0-3.71,0-7.43,0-11.15,0-2.82,0-2.82,1.84-2.83,2,0,2,0,2,3v15.72c0,.39,0,.77,0,1.15-.08,1.62-.53,1.95-2.11,1.75a4.46,4.46,0,0,1-2.37-1.49C577,445.9,571.62,441.09,565.85,436Z"/><path class="cls-14" d="M347.38,435.91c0,4.88,0,9.52,0,14.16,0,2.14-.15,2.17-2.28,2.13-1.16,0-1.45-.5-1.45-1.55,0-6.19,0-12.38,0-18.57,0-1.52,1.37-2.12,3.08-1.31a8.24,8.24,0,0,1,1.77,1.42q7.47,6.65,14.91,13.31c.27.24.47.61,1.05.54.54-.46.2-1.14.2-1.74,0-4,0-8,0-12,0-1.71.15-1.68,2.09-1.76,1.44-.06,1.76.52,1.75,1.83-.06,5.9,0,11.81,0,17.71,0,2.09-1.24,2.77-3.08,1.73a4.21,4.21,0,0,1-.66-.54Z"/><path class="cls-14" d="M795.77,436.24c0,4.73,0,9.3,0,13.86a2.12,2.12,0,0,1-3.21,2c-.8-.36-.59-1.11-.59-1.73,0-4.1,0-8.2,0-12.29v-7.16a4.21,4.21,0,0,1,4.71,1.06c5.32,4.85,10.73,9.62,16.39,14.67v-6.45c0-2.48,0-4.95,0-7.43,0-2,1.11-2.77,3-2.15a.83.83,0,0,1,.65.8c0,.38,0,.76,0,1.14,0,5.91,0,11.81,0,17.72,0,1.81-1.06,2.49-2.72,1.73a7,7,0,0,1-1.57-1.22l-16-14.27C796.38,436.4,796.18,436.39,795.77,436.24Z"/><path class="cls-14" d="M714.14,433.91H700.58a.93.93,0,0,0-1,1q0,6.44,0,12.87a.91.91,0,0,0,1,1h13.64c.65-1.73-.1-3.41.55-4.91,4.1.46,4.43.88,3.75,4.65-.38,2.15-1.13,2.95-3.29,3.37a13.74,13.74,0,0,1-2.56.2c-3.81,0-7.63,0-11.44,0a19.91,19.91,0,0,1-2.56-.19,3.31,3.31,0,0,1-3.12-3.17,13.62,13.62,0,0,1-.13-1.42c0-3.91-.07-7.82,0-11.73s1.21-5,5.23-5.07q6.29-.06,12.58,0c4.26,0,5.65,1.6,5.4,5.82-.06,1.07-.41,1.57-1.49,1.61-.74,0-1.48.2-2.26.31C714.05,437,714.9,435.44,714.14,433.91Z"/><path class="cls-14" d="M689,430.58c0,.84,0,1.31.1,1.77.15,1.31-.53,1.57-1.69,1.56-4.58-.05-9.15,0-13.72,0-2,0-2,0-2.08,2v.86c0,2.65-.14,2.5,2.46,2.49,2.19,0,4.38.06,6.57,0,1.4-.05,1.49.73,1.5,1.81s-.29,1.54-1.45,1.51c-2.57-.06-5.15,0-7.72,0-1,0-1.29.32-1.38,1.3-.43,5-.46,5,4.51,5,3.81,0,7.63.07,11.43,0,2,0,1.88.58,1.82,2.3a1,1,0,0,1-1.1,1h-.85c-6,0-12,0-18,0-1.23,0-2-.17-1.95-1.68.06-6.09,0-12.19,0-18.29,0-1.19.36-1.68,1.63-1.67,6,.05,12,0,18,0Z"/><path class="cls-14" d="M471.15,452.18c-3,0-6.09,0-9.14,0-1.23,0-1.68-.41-1.68-1.64q.06-9.13,0-18.29c0-1.14.25-1.72,1.57-1.71,6.19.05,12.38.06,18.58,0,1.41,0,1.46.71,1.5,1.77.05,1.28-.51,1.6-1.7,1.59-4.38-.05-8.76,0-13.15,0-2.81,0-2.67-.27-2.66,2.56,0,3.1-.27,2.8,2.7,2.81,2,0,4,.07,6,0,1.37-.06,1.83.41,1.84,1.79s-.6,1.57-1.74,1.54c-2.38-.05-4.76,0-7.14,0-1.18,0-1.65.29-1.7,1.57-.18,4.76-.23,4.76,4.5,4.76,3.81,0,7.62,0,11.43,0,1.24,0,2,.18,1.9,1.69,0,1.23-.46,1.68-1.68,1.66C477.44,452.14,474.3,452.18,471.15,452.18Z"/><path class="cls-14" d="M727.28,430.77a6.24,6.24,0,0,1,.86-.17c3.53,0,3.1-.28,3.13,3,0,1.52,0,3.05,0,4.57,0,.66.21,1.12,1,1.12h16.09v-8.14c.3-.24.43-.43.57-.44,3.56-.25,3.56-.25,3.56,3.31,0,5.34,0,10.67,0,16,0,.71.36,1.71-.53,2a5,5,0,0,1-3.09,0c-.55-.17-.45-.77-.46-1.22,0-1.34,0-2.67,0-4v-4.25h-9c-2.1,0-4.19.06-6.29,0-1.31,0-1.91.29-1.83,1.73.12,1.9,0,3.81,0,5.72,0,2.18,0,2.19-2.22,2.19a2.59,2.59,0,0,1-1.77-.33Z"/><path class="cls-14" d="M493,434.13c-.55,5.13-.55,5.13,4.52,5.13,1.53,0,3.05,0,4.58,0,1.22,0,1.37.68,1.36,1.65s-.07,1.69-1.32,1.65c-2-.05-4,0-6,0a7.81,7.81,0,0,0-3.2.25,36.11,36.11,0,0,0-.07,5.6c.66.69,1.46.43,2.17.44,4.58,0,9.16,0,13.73,0a1.86,1.86,0,0,1,1.69,2.82c-.28.52-.77.48-1.24.48-6.29,0-12.58,0-18.88,0-1.55,0-1.66-.78-1.65-2,0-5.06,0-10.11,0-15.16,0-4.5,0-4.5,4.49-4.5,5.15,0,10.3,0,15.45,0,1.37,0,1.83.4,1.8,1.79s-.62,1.57-1.76,1.56c-4.29,0-8.58,0-12.87,0A6.61,6.61,0,0,0,493,434.13Z"/><path class="cls-14" d="M429.39,435.9c0,4.94,0,9.7,0,14.46,0,1.32-.33,1.91-1.77,1.85-1.85-.09-2-.07-2-1.86,0-6.47,0-12.94,0-19.45a4.19,4.19,0,0,1,4.72,1.1c5.19,4.77,10.46,9.45,15.71,14.15a2.67,2.67,0,0,0,.68.25V430.83c3.67-.48,3.68-.48,3.68,2.86,0,5.43,0,10.86,0,16.29,0,.72.34,1.74-.49,2.06a2.64,2.64,0,0,1-2.71-.34c-.58-.49-1.16-1-1.73-1.5C440.15,445.47,434.81,440.73,429.39,435.9Z"/><path class="cls-14" d="M217.5,443.89c4.49.59,4.28-.38,4,4.43-.13,2.44-1.06,3.31-3.54,3.71a19.17,19.17,0,0,1-2.84.15q-5.44,0-10.87,0a13.61,13.61,0,0,1-2.56-.2c-2.1-.41-3.1-1.31-3.15-3.44-.12-4.77-.14-9.54,0-14.3.08-2.35,1.26-3.48,3.69-3.55,5.14-.15,10.3-.18,15.44,0,3.12.11,5,3.58,3.82,6.59-.47,1.18-1.67.61-2.51.91-1.11.41-1.49-.05-1.56-1.2-.17-3.08-.22-3.08-3.27-3.08-3.34,0-6.67,0-10,0-1.22,0-1.67.4-1.65,1.65.06,4,0,8,0,12,0,1,.37,1.34,1.34,1.33q6.15,0,12.3,0c1,0,1.35-.37,1.31-1.34C217.46,446.41,217.5,445.27,217.5,443.89Z"/><path class="cls-5" d="M48.06,87.73c2.87.11,5.17,1.83,7.71,2.83,3.9,1.51,7.67,3.34,11.46,5.1,7.6,3.52,15.34,6.72,22.82,10.49-1,1.49-1.47,3.31-2.8,4.6-4-1.87-7.88-3.78-11.87-5.58-8.56-3.85-17.17-7.62-25.72-11.49a7.39,7.39,0,0,0-3.84-.79A25.66,25.66,0,0,1,48.06,87.73Z"/><path class="cls-14" d="M845.43,443.87c4.14.58,4.35.86,3.78,4.8a3.31,3.31,0,0,1-3.05,3.24,12.73,12.73,0,0,1-2.54.26q-6,0-12,0a10.78,10.78,0,0,1-2.27-.21c-2.13-.44-3-1.31-3.05-3.49q-.15-7,0-14c.06-2.51,1.17-3.71,3.73-3.78,5.14-.15,10.3-.19,15.43,0,3.13.11,4.93,3.58,3.76,6.63a.93.93,0,0,1-.83.64c-.94.11-1.87.25-2.8.37-.65-1-.34-2.1-.35-3.12s-.41-1.32-1.37-1.31c-4.09,0-8.19,0-12.29,0-1,0-1.28.48-1.27,1.4q0,6.13,0,12.29c0,1,.42,1.3,1.36,1.3q6.15,0,12.29,0c1,0,1.27-.47,1.27-1.39A11.69,11.69,0,0,1,845.43,443.87Z"/><path class="cls-10" d="M292.94,122.62a96.77,96.77,0,0,1,8.47,14.92,17.21,17.21,0,0,1-2.5-.21,18.28,18.28,0,0,0-8.79.19c-2.54-2-4.65-4.41-7-6.61q-4.63-4.38-9.24-8.78c1.64-1.34,3.47-.75,5.33-.69C283.83,121.59,288.39,122.09,292.94,122.62Z"/><path class="cls-6" d="M244.1,98.11c1.39-1.62,3.21-1.43,5-1a15.73,15.73,0,0,0,2.8.39c4.26.19,8.49.75,12.73,1,3.88.22,7.73,1,11.63.74l.06.07.46.51.1.14a.77.77,0,0,0,.32.37,44.45,44.45,0,0,1,5.35,6.93,11.41,11.41,0,0,1-2.56-.11c-3.24-.86-6.58-.63-9.86-.95-4-.4-8.08-.72-12.13-1-1.31-.08-2.26.22-2.24,1.78Z"/><path class="cls-13" d="M45.82,92.89a7.39,7.39,0,0,1,3.84.79c8.55,3.87,17.16,7.64,25.72,11.49,4,1.8,7.91,3.71,11.87,5.58a14,14,0,0,1-2.49,4.49c-2.67-1.18-5.25-2.52-7.93-3.68-8.68-3.75-17.3-7.66-25.93-11.51-2.24-1-4.29-2.46-6.86-2.58A13.41,13.41,0,0,1,45.82,92.89Z"/><path class="cls-14" d="M654.41,429.54a5.49,5.49,0,0,0-.37,3c0,5.72,0,11.45,0,17.17,0,.81.43,2-.51,2.34a5.19,5.19,0,0,1-3.37,0c-.8-.24-.56-1.12-.56-1.75,0-5,0-9.92,0-14.87a24.48,24.48,0,0,0-.26-5.87c-3.25,0-6.48,0-9.7,0a2,2,0,0,1-1.9-3,.92.92,0,0,1,.88-.58c.47,0,.95,0,1.43,0,7.91,0,15.82,0,23.74,0,2.35,0,2.43.17,2.31,2.36,0,1.08-.59,1.24-1.45,1.24-2.29,0-4.58,0-6.86,0Z"/><path class="cls-7" d="M17.68,74.57A96.83,96.83,0,0,1,30.4,75.62a17.74,17.74,0,0,0,3.42.07c2.3-.17,4.48.78,6.78.65,1.07-.06,1,.88,1.07,1.65a79.92,79.92,0,0,1-9.3,7.63,8.37,8.37,0,0,0-3.76-1.24c-3.35.16-6.6-.78-9.94-.67-1.9.06-3.81,0-5.72,0A41.71,41.71,0,0,1,17.68,74.57Z"/><path class="cls-9" d="M255.74,106.94c0-1.56.93-1.86,2.24-1.78,4,.27,8.1.59,12.13,1,3.28.32,6.62.09,9.86.95a11.41,11.41,0,0,0,2.56.11,41.7,41.7,0,0,1,5.24,7.41,25.46,25.46,0,0,1-3.71-.07c-4.22-.66-8.47-.8-12.72-1.06a8.06,8.06,0,0,1-2.53-.31,3.49,3.49,0,0,0-4.12,1A110.51,110.51,0,0,1,255.74,106.94Z"/><path class="cls-9" d="M13,83.68c1.91,0,3.82.09,5.72,0,3.34-.11,6.59.83,9.94.67a8.37,8.37,0,0,1,3.76,1.24L22.19,96.15c.23-2,.19-1.84-1.42-2.15-3.91-.74-7.85-.46-11.78-.57A39.23,39.23,0,0,1,13,83.68Z"/><path class="cls-12" d="M264.69,114.14a3.49,3.49,0,0,1,4.12-1,8.06,8.06,0,0,0,2.53.31c4.25.26,8.5.4,12.72,1.06a25.46,25.46,0,0,0,3.71.07,41.91,41.91,0,0,1,5.17,8c-4.55-.53-9.11-1-13.7-1.18-1.86-.06-3.69-.65-5.33.69A111.12,111.12,0,0,1,264.69,114.14Z"/><path class="cls-4" d="M290.12,137.52a18.28,18.28,0,0,1,8.79-.19,17.21,17.21,0,0,0,2.5.21,186.87,186.87,0,0,1,10.67,23.7c-.83,0-1.05-.68-1.4-1.09-6.34-7.51-12.94-14.77-19.87-21.73A10.2,10.2,0,0,1,290.12,137.52Z"/><path class="cls-10" d="M15.8,104.31A121.52,121.52,0,0,0,8,117.49c-1,2.14-1.91,4.35-2.92,6.51-.37.8-.53,2.22-1.66,2s-.64-1.62-.69-2.52a40.71,40.71,0,0,1,.66-8,72.14,72.14,0,0,1,2.42-11.72c1.33,0,2.5-.82,3.9-.5C11.71,103.71,13.76,104,15.8,104.31Z"/><path class="cls-12" d="M15.8,104.31c-2-.34-4.09-.6-6.11-1-1.4-.32-2.57.55-3.9.5A48.49,48.49,0,0,1,9,93.43c3.93.11,7.87-.17,11.78.57,1.61.31,1.65.19,1.42,2.15l-.1.14-.45.53Z"/><path class="cls-14" d="M780.25,439.08c0,3.81,0,7.61,0,11.41,0,.63.16,1.51-.75,1.6-1.09.12-2.27.4-3.31-.22-.44-.27-.29-.87-.3-1.33,0-7.7,0-15.4,0-23.1,0-1.07.3-1.62,1.44-1.5a4.83,4.83,0,0,0,1.14,0c1.34-.16,1.86.34,1.83,1.74C780.2,431.48,780.25,435.28,780.25,439.08Z"/><path class="cls-14" d="M411.75,441.42c0-3.13,0-6.26,0-9.4,0-1.1.41-1.44,1.5-1.47,2.53-.06,2.62-.06,2.62,2.36,0,5.89,0,11.77,0,17.65,0,.65.11,1.48-.81,1.55s-2.12.41-3-.24c-.46-.33-.27-1.06-.27-1.63Q411.75,445.83,411.75,441.42Z"/><path class="cls-14" d="M185.33,430.78c3.95-.42,3.95-.42,3.95,3.43,0,5.32,0,10.63,0,16,0,.69.35,1.68-.68,1.91a4.61,4.61,0,0,1-3.07-.12c-.52-.26-.33-1-.33-1.58,0-4,0-8,0-12A62.45,62.45,0,0,1,185.33,430.78Z"/><path class="cls-14" d="M548.14,441.16c0-2.77,0-5.53,0-8.3,0-2.29,0-2.29,2.1-2.28,1.92,0,2,0,2,2.13,0,5.81,0,11.62,0,17.43,0,2-.07,2.05-2.09,2s-2,0-2-2.16C548.12,447.06,548.14,444.11,548.14,441.16Z"/><path class="cls-14" d="M865.19,449.2c0,2.92,0,3-2.7,3-3,0-3,0-3-2.7,0-2.94,0-2.94,2.69-3C865.17,446.5,865.17,446.5,865.19,449.2Z"/><path class="cls-3" d="M112.11,54.4A2.33,2.33,0,0,1,114,54h18.48a2.42,2.42,0,0,1,1.88.41Z"/><path class="cls-7" d="M14.24,258.26l.94,0c.64,1.05.71,2.25,1.26,4A10.11,10.11,0,0,1,14.24,258.26Z"/><path class="cls-15" d="M167,116.33c2.3,0,4.64-.46,6.88.48A22.41,22.41,0,0,1,167,116.33Z"/><path class="cls-6" d="M93.3,288c.37,0,.77,0,1-.38a4.67,4.67,0,0,1,1.5,2.36A7,7,0,0,1,93.3,288Z"/><path class="cls-13" d="M303.28,160.36l.69-.52a3.52,3.52,0,0,1,1.44,1.89A2.8,2.8,0,0,1,303.28,160.36Z"/><path class="cls-3" d="M137.28,54.53c1.31.14,2.69-.4,3.93.41A6.86,6.86,0,0,1,137.28,54.53Z"/><path class="cls-3" d="M147.07,55.65c.91.13,1.92-.29,2.73.46A3.64,3.64,0,0,1,147.07,55.65Z"/><path class="cls-3" d="M143,55.1c.94.1,1.95-.31,2.79.42A3.78,3.78,0,0,1,143,55.1Z"/><path class="cls-3" d="M151,56.25c.77,0,1.6-.24,2.24.44A2.64,2.64,0,0,1,151,56.25Z"/><path class="cls-15" d="M168.8,76.81c-.62,0-1.26.18-1.74-.38A2,2,0,0,1,168.8,76.81Z"/><path class="cls-5" d="M88.08,57.77a1.22,1.22,0,0,1,1.15-.35A1.05,1.05,0,0,1,88.08,57.77Z"/><path class="cls-9" d="M207,121a1.19,1.19,0,0,1,1.23.33A1.2,1.2,0,0,1,207,121Z"/><path class="cls-9" d="M209.85,121.54a1.18,1.18,0,0,1,1.2.33A1.19,1.19,0,0,1,209.85,121.54Z"/><path class="cls-12" d="M240.9,129.49a1.11,1.11,0,0,1,1.06.41A1.1,1.1,0,0,1,240.9,129.49Z"/><path class="cls-11" d="M193.15,82.59a1,1,0,0,1-.91-.4C192.64,82.1,193,82.12,193.15,82.59Z"/><path class="cls-13" d="M303.84,159.65a.74.74,0,0,1-.6-.8C303.58,159,303.87,159.22,303.84,159.65Z"/><path class="cls-6" d="M237.49,101.42l-.63-.41A.55.55,0,0,1,237.49,101.42Z"/><path class="cls-11" d="M270.38,92.27a.87.87,0,0,1-.38-.38A.35.35,0,0,1,270.38,92.27Z"/><path class="cls-8" d="M277.18,100.28a.77.77,0,0,1-.32-.37C277.09,99.92,277.22,100,277.18,100.28Z"/><path class="cls-11" d="M269.88,91.76l-.45-.47A.46.46,0,0,1,269.88,91.76Z"/><path class="cls-13" d="M254.45,76.31l-.47-.45A.46.46,0,0,1,254.45,76.31Z"/><path class="cls-13" d="M253.84,75.74a.94.94,0,0,1-.37-.37C253.72,75.36,253.83,75.5,253.84,75.74Z"/><path class="cls-5" d="M247.14,70l-.59-.5A.64.64,0,0,1,247.14,70Z"/><path class="cls-13" d="M255.05,76.87l-.5-.47A.51.51,0,0,1,255.05,76.87Z"/><path class="cls-13" d="M29.12,58.7a1,1,0,0,1-.38.38C28.74,58.82,28.88,58.71,29.12,58.7Z"/><path class="cls-9" d="M21.64,96.82l.45-.53A.5.5,0,0,1,21.64,96.82Z"/><path class="cls-3" d="M46.22,43.28l-.46.39A.43.43,0,0,1,46.22,43.28Z"/><path class="cls-8" d="M276.76,99.77l-.46-.51A.5.5,0,0,1,276.76,99.77Z"/></g></g></svg>